<?xml version="1.0" encoding="utf-8"?>
<!-- Generator: Adobe Illustrator 16.0.0, SVG Export Plug-In . SVG Version: 6.00 Build 0)  -->
<!DOCTYPE svg PUBLIC "-//W3C//DTD SVG 1.1//EN" "http://www.w3.org/Graphics/SVG/1.1/DTD/svg11.dtd">
<svg version="1.1" id="Layer_1" xmlns="http://www.w3.org/2000/svg" xmlns:xlink="http://www.w3.org/1999/xlink" x="0px" y="0px"
	 width="100.982px" height="62.941px" viewBox="0 0 100.982 62.941" style="enable-background:new 0 0 100.982 62.941;"
	 xml:space="preserve">
<g id="ECE_1_">
	<g id="ECE">
		<path style="fill:#00588A;" d="M36.428,4.176c0.011-0.062,0.05-0.082,0.109-0.058L64.57,14.32c0.067,0.035,0.102,0.08,0.102,0.137
			v6.296c0,0.066-0.026,0.088-0.102,0.063l-20.935-7.62v10.833L64.57,31.65c0.067,0.035,0.102,0.08,0.102,0.137v6.297
			c0,0.064-0.026,0.087-0.102,0.062L36.544,27.942c-0.078-0.026-0.108-0.073-0.108-0.146L36.428,4.176L36.428,4.176z"/>
		<path style="fill:#00588A;" d="M66.333,14.456c0.019-0.07,0.051-0.118,0.117-0.144l28.03-10.2c0.062-0.013,0.1,0.01,0.1,0.062
			v6.302c0,0.062-0.033,0.107-0.1,0.136L73.542,18.23v2.188L94.48,12.8c0.062-0.013,0.1,0.014,0.1,0.064v6.296
			c0,0.066-0.033,0.111-0.1,0.136l-20.938,7.62v2.146l20.938-7.62c0.062-0.019,0.1,0.009,0.1,0.062v6.295
			c0,0.067-0.033,0.112-0.1,0.143l-28.029,10.2c-0.078,0.023-0.117,0.008-0.117-0.062L66.333,14.456L66.333,14.456z"/>
		<path style="fill:#00588A;" d="M6.275,14.458c0.012-0.065,0.051-0.118,0.117-0.143L34.421,4.113
			c0.066-0.012,0.104,0.01,0.104,0.062v6.302c0,0.062-0.031,0.107-0.104,0.135l-20.935,7.62v2.188l20.935-7.62
			c0.066-0.013,0.104,0.013,0.104,0.064v6.297c0,0.065-0.031,0.11-0.104,0.135l-20.935,7.62v2.146l20.935-7.621
			c0.066-0.018,0.104,0.01,0.104,0.062V27.8c0,0.067-0.031,0.112-0.104,0.141L6.393,38.14c-0.079,0.023-0.117,0.01-0.117-0.062
			L6.275,14.458L6.275,14.458z"/>
	</g>
	<g id="ECE_white" style="display:none;">
		<path style="display:inline;fill:#E2E9EC;" d="M36.428,4.176c0.011-0.062,0.05-0.082,0.109-0.058L64.57,14.32
			c0.067,0.035,0.102,0.08,0.102,0.137v6.296c0,0.066-0.026,0.088-0.102,0.063l-20.935-7.62v10.833L64.57,31.65
			c0.067,0.035,0.102,0.08,0.102,0.137v6.297c0,0.064-0.026,0.087-0.102,0.062L36.544,27.942c-0.078-0.026-0.108-0.073-0.108-0.146
			L36.428,4.176L36.428,4.176z"/>
		<path style="display:inline;fill:#E2E9EC;" d="M66.333,14.456c0.019-0.07,0.051-0.118,0.117-0.144l28.03-10.2
			c0.062-0.013,0.1,0.01,0.1,0.062v6.302c0,0.062-0.033,0.107-0.1,0.136L73.542,18.23v2.188L94.48,12.8
			c0.062-0.013,0.1,0.014,0.1,0.064v6.296c0,0.066-0.033,0.111-0.1,0.136l-20.938,7.62v2.146l20.938-7.62
			c0.062-0.019,0.1,0.009,0.1,0.062v6.295c0,0.067-0.033,0.112-0.1,0.143l-28.029,10.2c-0.078,0.023-0.117,0.008-0.117-0.062
			L66.333,14.456L66.333,14.456z"/>
		<path style="display:inline;fill:#E2E9EC;" d="M6.275,14.458c0.012-0.065,0.051-0.118,0.117-0.143L34.421,4.113
			c0.066-0.012,0.104,0.01,0.104,0.062v6.302c0,0.062-0.031,0.107-0.104,0.135l-20.935,7.62v2.188l20.935-7.62
			c0.066-0.013,0.104,0.013,0.104,0.064v6.297c0,0.065-0.031,0.11-0.104,0.135l-20.935,7.62v2.146l20.935-7.621
			c0.066-0.018,0.104,0.01,0.104,0.062V27.8c0,0.067-0.031,0.112-0.104,0.141L6.393,38.14c-0.079,0.023-0.117,0.01-0.117-0.062
			L6.275,14.458L6.275,14.458z"/>
	</g>
</g>
<g>
	<path style="fill:#4D525F;" d="M14.789,56.419v1.602H6.726v-2.172c0-1.125,0.202-1.872,0.605-2.242
		c0.403-0.37,1.363-0.69,2.879-0.961c1.255-0.224,1.999-0.429,2.23-0.613c0.231-0.185,0.348-0.663,0.348-1.434
		c0-0.739-0.116-1.208-0.348-1.406c-0.232-0.198-0.783-0.297-1.652-0.297c-0.896,0-1.461,0.101-1.695,0.301
		s-0.352,0.688-0.352,1.465v0.453H6.758v-0.445c0-1.339,0.276-2.239,0.828-2.703c0.552-0.464,1.622-0.695,3.211-0.695
		c1.552,0,2.605,0.234,3.16,0.703s0.832,1.359,0.832,2.672c0,1.239-0.211,2.069-0.633,2.488s-1.394,0.77-2.914,1.051
		c-1.255,0.229-1.984,0.423-2.188,0.582S8.75,55.38,8.75,56.13v0.289H14.789z"/>
	<path style="fill:#4D525F;" d="M21.667,47.27c1.958,0,3.167,0.288,3.625,0.863c0.458,0.575,0.688,2.093,0.688,4.551
		c0,2.464-0.229,3.983-0.688,4.559c-0.458,0.575-1.667,0.863-3.625,0.863c-1.958,0-3.167-0.289-3.625-0.867
		c-0.458-0.578-0.688-2.097-0.688-4.555s0.229-3.976,0.688-4.551C18.5,47.558,19.708,47.27,21.667,47.27z M21.51,49.005
		c-0.933,0-1.522,0.133-1.77,0.398c-0.248,0.266-0.371,0.896-0.371,1.891l-0.016,1.398l0.016,1.297c0,1.078,0.125,1.745,0.375,2
		s0.898,0.383,1.945,0.383c1.088,0,1.742-0.18,1.961-0.539s0.328-1.43,0.328-3.211c0-1.797-0.104-2.849-0.312-3.156
		C23.458,49.158,22.74,49.005,21.51,49.005z"/>
	<path style="fill:#4D525F;" d="M36.467,56.419v1.602h-8.062v-2.172c0-1.125,0.202-1.872,0.605-2.242
		c0.403-0.37,1.363-0.69,2.879-0.961c1.255-0.224,1.999-0.429,2.23-0.613c0.231-0.185,0.348-0.663,0.348-1.434
		c0-0.739-0.116-1.208-0.348-1.406c-0.232-0.198-0.783-0.297-1.652-0.297c-0.896,0-1.461,0.101-1.695,0.301
		s-0.352,0.688-0.352,1.465v0.453h-1.984v-0.445c0-1.339,0.276-2.239,0.828-2.703c0.552-0.464,1.622-0.695,3.211-0.695
		c1.552,0,2.605,0.234,3.16,0.703s0.832,1.359,0.832,2.672c0,1.239-0.211,2.069-0.633,2.488s-1.394,0.77-2.914,1.051
		c-1.255,0.229-1.984,0.423-2.188,0.582s-0.305,0.613-0.305,1.363v0.289H36.467z"/>
	<path style="fill:#4D525F;" d="M47.306,56.419v1.602h-8.062v-2.172c0-1.125,0.202-1.872,0.605-2.242
		c0.403-0.37,1.363-0.69,2.879-0.961c1.255-0.224,1.999-0.429,2.23-0.613c0.231-0.185,0.348-0.663,0.348-1.434
		c0-0.739-0.116-1.208-0.348-1.406c-0.232-0.198-0.783-0.297-1.652-0.297c-0.896,0-1.461,0.101-1.695,0.301
		s-0.352,0.688-0.352,1.465v0.453h-1.984v-0.445c0-1.339,0.276-2.239,0.828-2.703c0.552-0.464,1.622-0.695,3.211-0.695
		c1.552,0,2.605,0.234,3.16,0.703s0.832,1.359,0.832,2.672c0,1.239-0.211,2.069-0.633,2.488s-1.394,0.77-2.914,1.051
		c-1.255,0.229-1.984,0.423-2.188,0.582s-0.305,0.613-0.305,1.363v0.289H47.306z"/>
	<path style="fill:#4D525F;" d="M49.169,53.044h3.57v1.703h-3.57V53.044z"/>
	<path style="fill:#4D525F;" d="M62.515,56.419v1.602h-8.062v-2.172c0-1.125,0.202-1.872,0.605-2.242s1.363-0.69,2.879-0.961
		c1.255-0.224,1.999-0.429,2.23-0.613s0.348-0.663,0.348-1.434c0-0.739-0.116-1.208-0.348-1.406s-0.782-0.297-1.652-0.297
		c-0.896,0-1.461,0.101-1.695,0.301s-0.352,0.688-0.352,1.465v0.453h-1.984v-0.445c0-1.339,0.276-2.239,0.828-2.703
		s1.622-0.695,3.211-0.695c1.552,0,2.605,0.234,3.16,0.703s0.832,1.359,0.832,2.672c0,1.239-0.211,2.069-0.633,2.488
		s-1.394,0.77-2.914,1.051c-1.255,0.229-1.984,0.423-2.188,0.582s-0.305,0.613-0.305,1.363v0.289H62.515z"/>
	<path style="fill:#4D525F;" d="M69.393,47.27c1.958,0,3.167,0.288,3.625,0.863s0.688,2.093,0.688,4.551
		c0,2.464-0.229,3.983-0.688,4.559s-1.667,0.863-3.625,0.863s-3.167-0.289-3.625-0.867s-0.688-2.097-0.688-4.555
		s0.229-3.976,0.688-4.551S67.435,47.27,69.393,47.27z M69.237,49.005c-0.933,0-1.522,0.133-1.77,0.398s-0.371,0.896-0.371,1.891
		l-0.016,1.398l0.016,1.297c0,1.078,0.125,1.745,0.375,2s0.898,0.383,1.945,0.383c1.089,0,1.742-0.18,1.961-0.539
		s0.328-1.43,0.328-3.211c0-1.797-0.104-2.849-0.312-3.156S70.467,49.005,69.237,49.005z"/>
	<path style="fill:#4D525F;" d="M84.193,56.419v1.602h-8.062v-2.172c0-1.125,0.202-1.872,0.605-2.242s1.363-0.69,2.879-0.961
		c1.255-0.224,1.999-0.429,2.23-0.613s0.348-0.663,0.348-1.434c0-0.739-0.116-1.208-0.348-1.406s-0.782-0.297-1.652-0.297
		c-0.896,0-1.461,0.101-1.695,0.301s-0.352,0.688-0.352,1.465v0.453h-1.984v-0.445c0-1.339,0.276-2.239,0.828-2.703
		s1.622-0.695,3.211-0.695c1.552,0,2.605,0.234,3.16,0.703s0.832,1.359,0.832,2.672c0,1.239-0.211,2.069-0.633,2.488
		s-1.394,0.77-2.914,1.051c-1.255,0.229-1.984,0.423-2.188,0.582s-0.305,0.613-0.305,1.363v0.289H84.193z"/>
	<path style="fill:#4D525F;" d="M90.189,53.356v-1.57l0.344,0.008c1.136,0,1.827-0.067,2.074-0.203s0.371-0.519,0.371-1.148
		c0-0.703-0.11-1.137-0.332-1.301s-0.806-0.246-1.754-0.246c-0.859,0-1.401,0.09-1.625,0.27s-0.336,0.618-0.336,1.316v0.312h-1.953
		v-0.398c0-1.245,0.263-2.077,0.789-2.496s1.565-0.629,3.117-0.629c1.562,0,2.636,0.198,3.219,0.594s0.875,1.128,0.875,2.195
		c0,1.474-0.591,2.302-1.773,2.484v0.055c1.286,0.141,1.93,0.917,1.93,2.328c0,1.255-0.284,2.099-0.852,2.531
		s-1.675,0.648-3.32,0.648c-1.614,0-2.712-0.216-3.293-0.648s-0.871-1.25-0.871-2.453l0.008-0.594h1.977
		c0.016,0.234,0.023,0.375,0.023,0.422c0,0.734,0.124,1.192,0.371,1.375s0.868,0.273,1.863,0.273c0.911,0,1.488-0.099,1.73-0.297
		s0.363-0.672,0.363-1.422c0-0.573-0.11-0.95-0.332-1.133s-0.681-0.273-1.379-0.273h-0.883H90.189z"/>
</g>
</svg>
