<?xml version="1.0" encoding="utf-8"?>
<!-- Generator: Adobe Illustrator 16.0.0, SVG Export Plug-In . SVG Version: 6.00 Build 0)  -->
<!DOCTYPE svg PUBLIC "-//W3C//DTD SVG 1.1//EN" "http://www.w3.org/Graphics/SVG/1.1/DTD/svg11.dtd">
<svg version="1.1" xmlns="http://www.w3.org/2000/svg" xmlns:xlink="http://www.w3.org/1999/xlink" x="0px" y="0px" width="612px"
	 height="284.948px" viewBox="0 0 612 284.948" enable-background="new 0 0 612 284.948" xml:space="preserve">
<g id="UCLA_ECE">
	<g>
		<path fill="#FFFFFF" d="M247.712,70.479c0.044-0.254,0.202-0.33,0.472-0.232l113.675,41.375c0.27,0.143,0.404,0.326,0.404,0.551
			v25.537c0,0.27-0.135,0.355-0.404,0.258l-84.902-30.902v43.934l84.902,30.902c0.27,0.143,0.404,0.326,0.404,0.551v25.539
			c0,0.27-0.135,0.355-0.404,0.258l-113.675-41.375c-0.315-0.115-0.472-0.307-0.472-0.576V70.479z"/>
		<path fill="#FFFFFF" d="M369.001,112.173c0.045-0.285,0.203-0.479,0.473-0.576l113.674-41.375c0.27-0.051,0.404,0.035,0.404,0.258
			v25.539c0,0.27-0.135,0.453-0.404,0.551l-84.902,30.902v8.895l84.902-30.902c0.27-0.053,0.404,0.033,0.404,0.258v25.537
			c0,0.27-0.135,0.453-0.404,0.551l-84.902,30.902v8.693l84.902-30.902c0.27-0.053,0.404,0.033,0.404,0.258v25.537
			c0,0.27-0.135,0.453-0.404,0.551l-113.674,41.375c-0.316,0.115-0.473,0.037-0.473-0.232V112.173z"/>
		<path fill="#FFFFFF" d="M125.423,112.179c0.045-0.285,0.203-0.479,0.473-0.576l113.674-41.375c0.27-0.051,0.404,0.035,0.404,0.258
			v25.539c0,0.27-0.135,0.453-0.404,0.551l-84.902,30.902v8.895l84.902-30.902c0.27-0.053,0.404,0.033,0.404,0.258v25.537
			c0,0.27-0.135,0.453-0.404,0.551l-84.902,30.902v8.693l84.902-30.902c0.27-0.053,0.404,0.033,0.404,0.258v25.537
			c0,0.27-0.135,0.453-0.404,0.551l-113.674,41.375c-0.316,0.115-0.473,0.037-0.473-0.232V112.179z"/>
		<g>
			<path fill="#FFFFFF" d="M247.751,188.292l-0.735,2.987l-0.882-0.321l3.214-13.548l1.408,0.512l3.277,15.911l-0.966-0.352
				l-0.736-3.522L247.751,188.292z M247.899,187.507l4.285,1.559l-2.164-10.299L247.899,187.507z"/>
			<path fill="#FFFFFF" d="M257.937,195.254l-0.882-0.321v-14.697l1.26,0.459l4.412,14.015V182.3l0.882,0.321v14.697l-1.071-0.39
				l-4.6-14.776V195.254z"/>
			<path fill="#FFFFFF" d="M270.054,184.968c2.269,0.825,3.256,2.676,3.256,4.838v7.391c0,2.162-0.987,3.294-3.256,2.469
				l-3.235-1.178V183.79L270.054,184.968z M270.033,198.775c1.638,0.596,2.311-0.272,2.311-1.889v-7.475
				c0-1.617-0.693-2.982-2.311-3.57l-2.248-0.818v12.934L270.033,198.775z"/>
			<path fill="#FFFFFF" d="M287.548,194.925v1.218l-0.924-0.337v-1.28c0-1.575-0.609-2.993-2.227-3.582
				c-1.617-0.589-2.226,0.387-2.226,1.961v7.643c0,1.575,0.609,2.973,2.226,3.562c1.618,0.588,2.227-0.365,2.227-1.94v-1.743
				l0.924,0.337v1.68c0,2.12-0.924,3.38-3.172,2.562c-2.248-0.818-3.171-2.75-3.171-4.871v-7.516c0-2.121,0.924-3.381,3.171-2.562
				C286.624,190.872,287.548,192.804,287.548,194.925z"/>
			<path fill="#FFFFFF" d="M290.612,196.04c0-2.142,0.987-3.357,3.214-2.547c2.269,0.826,3.256,2.76,3.256,4.901v7.517
				c0,2.142-0.987,3.357-3.256,2.531c-2.227-0.811-3.214-2.744-3.214-4.886V196.04z M291.578,203.972c0,1.596,0.63,3,2.248,3.589
				c1.639,0.597,2.29-0.343,2.29-1.938v-7.643c0-1.596-0.651-3.008-2.29-3.604c-1.617-0.589-2.248,0.358-2.248,1.954V203.972z"/>
			<path fill="#FFFFFF" d="M305.166,212.423l-0.966-0.352l-3.109-14.128v13.018l-0.861-0.313V195.95l1.387,0.504l3.088,14.121
				l3.066-11.881l1.387,0.505v14.697l-0.924-0.336v-13.06L305.166,212.423z"/>
			<path fill="#FFFFFF" d="M315.434,201.484c2.269,0.825,3.15,2.574,3.15,4.716v1.596c0,2.33-1.071,3.096-3.402,2.247l-1.827-0.665
				v6.047l-0.967-0.352v-14.697L315.434,201.484z M315.182,209.161c1.701,0.619,2.437,0.131,2.437-1.654v-1.722
				c0-1.596-0.547-2.823-2.185-3.419l-2.079-0.757v6.887L315.182,209.161z"/>
			<path fill="#FFFFFF" d="M322.511,215.209c0,1.575,0.588,3.007,2.205,3.595c1.618,0.589,2.206-0.414,2.206-1.989v-11.149
				l0.903,0.329v11.106c0,2.1-0.882,3.396-3.131,2.578c-2.246-0.818-3.15-2.764-3.15-4.863v-11.107l0.967,0.352V215.209z"/>
			<path fill="#FFFFFF" d="M333.515,222.763v-13.816l-2.983-1.085v-0.882l6.953,2.53v0.882l-3.003-1.093v13.815L333.515,222.763z"/>
			<path fill="#FFFFFF" d="M345.213,219.126v0.882l-4.012-1.461v6.131l4.831,1.759v0.882l-5.797-2.11v-14.697l5.797,2.11v0.882
				l-4.831-1.759v5.921L345.213,219.126z"/>
			<path fill="#FFFFFF" d="M352.226,214.875c2.248,0.818,3.15,2.386,3.15,4.464v1.281c0,1.722-0.672,2.464-2.121,2.272
				c1.512,0.886,2.121,2.179,2.121,3.774v2.289c0,0.608,0.043,1.296,0.357,1.893l-1.008-0.366c-0.252-0.532-0.316-1.081-0.316-1.878
				v-2.311c0-1.952-1.07-2.888-2.75-3.5l-1.533-0.558v6.571l-0.967-0.352v-14.697L352.226,214.875z M351.68,221.92
				c1.723,0.627,2.729,0.511,2.729-1.462v-1.387c0-1.574-0.609-2.741-2.205-3.322l-2.078-0.756v6.361L351.68,221.92z"/>
		</g>
		<g>
			<path fill="#FFFFFF" d="M149.319,216.378v0.883l-4.012,1.46v6.131l4.831-1.759v0.882l-5.797,2.11v-14.697l5.797-2.11v0.882
				l-4.831,1.759v5.921L149.319,216.378z"/>
			<path fill="#FFFFFF" d="M153.266,222.837V208.14l0.966-0.353v13.815l4.621-1.682v0.882L153.266,222.837z"/>
			<path fill="#FFFFFF" d="M166.833,210.004v0.882l-4.012,1.46v6.131l4.831-1.758v0.882l-5.797,2.109v-14.697l5.797-2.109v0.882
				l-4.831,1.758v5.921L166.833,210.004z"/>
			<path fill="#FFFFFF" d="M177.06,203.068v1.219l-0.924,0.337v-1.281c0-1.574-0.609-2.55-2.228-1.961
				c-1.617,0.588-2.226,2.008-2.226,3.582v7.643c0,1.574,0.609,2.527,2.226,1.939c1.618-0.589,2.228-1.986,2.228-3.561v-1.742
				l0.924-0.337v1.68c0,2.12-0.924,4.052-3.172,4.87c-2.247,0.818-3.171-0.441-3.171-2.561v-7.518c0-2.121,0.924-4.053,3.171-4.871
				C176.136,199.688,177.06,200.948,177.06,203.068z"/>
			<path fill="#FFFFFF" d="M182.666,212.136V198.32l-2.983,1.086v-0.882l6.954-2.531v0.882l-3.004,1.093v13.816L182.666,212.136z"/>
			<path fill="#FFFFFF" d="M192.452,193.876c2.248-0.817,3.15,0.092,3.15,2.171v1.28c0,1.723-0.672,2.954-2.122,3.817
				c1.512-0.214,2.122,0.634,2.122,2.229v2.289c0,0.609,0.042,1.266,0.357,1.634l-1.008,0.367c-0.252-0.35-0.315-0.851-0.315-1.649
				v-2.309c0-1.953-1.071-2.109-2.751-1.498l-1.534,0.558v6.572l-0.966,0.353v-14.697L192.452,193.876z M191.906,201.319
				c1.722-0.627,2.73-1.477,2.73-3.451v-1.385c0-1.576-0.609-2.299-2.205-1.718l-2.08,0.757v6.362L191.906,201.319z"/>
			<path fill="#FFFFFF" d="M200.011,191.125v14.697l-0.966,0.353v-14.697L200.011,191.125z"/>
			<path fill="#FFFFFF" d="M209.525,191.252v1.219l-0.924,0.337v-1.281c0-1.574-0.609-2.55-2.227-1.961
				c-1.617,0.588-2.226,2.008-2.226,3.582v7.643c0,1.574,0.609,2.527,2.226,1.939c1.618-0.589,2.227-1.986,2.227-3.561v-1.742
				l0.924-0.337v1.68c0,2.12-0.924,4.052-3.172,4.87c-2.248,0.818-3.171-0.441-3.171-2.561v-7.518c0-2.121,0.924-4.053,3.171-4.871
				C208.601,187.872,209.525,189.132,209.525,191.252z"/>
			<path fill="#FFFFFF" d="M214.06,197.455l-0.735,3.521l-0.882,0.321l3.214-15.889l1.408-0.512l3.277,13.525l-0.966,0.352
				l-0.736-2.986L214.06,197.455z M214.207,196.562l4.285-1.56l-2.164-8.724L214.207,196.562z"/>
			<path fill="#FFFFFF" d="M223.363,197.323v-14.697l0.966-0.352v13.815l4.622-1.683v0.882L223.363,197.323z"/>
		</g>
		<g>
			<path fill="#FFFFFF" d="M391.051,217.378v0.883l-4.013,1.46v6.131l4.831-1.759v0.882l-5.797,2.11v-14.697l5.797-2.11v0.882
				l-4.831,1.759v5.921L391.051,217.378z"/>
			<path fill="#FFFFFF" d="M395.88,223.516l-0.883,0.321V209.14l1.26-0.459l4.412,10.803v-12.408l0.881-0.321v14.697l-1.07,0.39
				l-4.6-11.427V223.516z"/>
			<path fill="#FFFFFF" d="M411.043,206.889v1.092l-0.925,0.337v-1.154c0-1.574-0.609-2.55-2.227-1.961
				c-1.617,0.588-2.227,2.008-2.227,3.582v7.643c0,1.574,0.609,2.527,2.227,1.939c1.617-0.589,2.227-1.986,2.227-3.561v-3.17
				l-1.953,0.711v-0.883l2.878-1.048v3.99c0,2.12-0.925,4.052-3.173,4.87c-2.247,0.818-3.171-0.441-3.171-2.561v-7.518
				c0-2.121,0.924-4.053,3.171-4.871C410.118,203.509,411.043,204.769,411.043,206.889z"/>
			<path fill="#FFFFFF" d="M415.178,201.794v14.697l-0.966,0.352v-14.697L415.178,201.794z"/>
			<path fill="#FFFFFF" d="M419.294,214.993l-0.883,0.321v-14.697l1.261-0.459l4.411,10.803v-12.408l0.883-0.321v14.697
				l-1.072,0.391l-4.6-11.428V214.993z"/>
			<path fill="#FFFFFF" d="M433.155,202.054v0.882l-4.012,1.46v6.131l4.83-1.758v0.882l-5.797,2.109v-14.697l5.797-2.109v0.882
				l-4.83,1.758v5.921L433.155,202.054z"/>
			<path fill="#FFFFFF" d="M442.079,198.806v0.882l-4.012,1.46v6.131l4.83-1.758v0.882l-5.797,2.109v-14.697l5.797-2.109v0.882
				l-4.83,1.758v5.921L442.079,198.806z"/>
			<path fill="#FFFFFF" d="M449.093,189.45c2.248-0.818,3.15,0.092,3.15,2.17v1.281c0,1.723-0.672,2.953-2.121,3.816
				c1.512-0.215,2.121,0.635,2.121,2.23v2.289c0,0.609,0.043,1.266,0.357,1.633l-1.008,0.367c-0.252-0.35-0.316-0.851-0.316-1.648
				v-2.31c0-1.952-1.07-2.109-2.75-1.498l-1.534,0.558v6.572l-0.966,0.353v-14.697L449.093,189.45z M448.546,196.894
				c1.724-0.628,2.73-1.478,2.73-3.451v-1.386c0-1.575-0.609-2.298-2.205-1.718l-2.079,0.758v6.361L448.546,196.894z"/>
			<path fill="#FFFFFF" d="M456.653,186.698v14.697l-0.967,0.352V187.05L456.653,186.698z"/>
			<path fill="#FFFFFF" d="M460.768,199.897l-0.882,0.321v-14.697l1.26-0.458l4.411,10.803v-12.408l0.882-0.321v14.697l-1.07,0.39
				l-4.601-11.428V199.897z"/>
			<path fill="#FFFFFF" d="M475.931,183.271v1.092l-0.924,0.336v-1.154c0-1.574-0.609-2.55-2.227-1.96
				c-1.617,0.588-2.227,2.007-2.227,3.581v7.643c0,1.574,0.609,2.528,2.227,1.94c1.617-0.59,2.227-1.987,2.227-3.562v-3.17
				l-1.953,0.712v-0.883l2.877-1.048v3.99c0,2.12-0.924,4.052-3.172,4.87s-3.172-0.441-3.172-2.562v-7.518
				c0-2.12,0.924-4.052,3.172-4.87S475.931,181.151,475.931,183.271z"/>
		</g>
	</g>
</g>
<g id="Layer_2" display="none">
	<g display="inline">
		<path fill="#00598B" d="M247.946,69.933c0.04-0.253,0.198-0.329,0.468-0.234l113.712,41.393c0.277,0.139,0.411,0.324,0.411,0.551
			v25.544c0,0.273-0.134,0.359-0.411,0.262l-84.932-30.917v43.948l84.932,30.919c0.277,0.144,0.411,0.325,0.411,0.547v25.552
			c0,0.266-0.134,0.353-0.411,0.259l-113.712-41.397c-0.317-0.11-0.468-0.301-0.468-0.574V69.933z"/>
		<path fill="#00598B" d="M369.273,111.642c0.048-0.285,0.206-0.479,0.476-0.578l113.72-41.389c0.27-0.052,0.403,0.036,0.403,0.258
			v25.547c0,0.27-0.134,0.457-0.403,0.552l-84.94,30.912v8.898l84.94-30.912c0.27-0.055,0.403,0.035,0.403,0.258v25.544
			c0,0.273-0.134,0.455-0.403,0.554l-84.94,30.912v8.698l84.94-30.913c0.27-0.056,0.403,0.036,0.403,0.258v25.543
			c0,0.273-0.134,0.456-0.403,0.556l-113.72,41.387c-0.317,0.115-0.476,0.036-0.476-0.229V111.642z"/>
		<path fill="#00598B" d="M125.608,111.649c0.048-0.285,0.206-0.483,0.476-0.579L239.8,69.68c0.27-0.053,0.396,0.035,0.396,0.257
			v25.548c0,0.269-0.127,0.455-0.396,0.551l-84.936,30.916v8.898l84.936-30.916c0.27-0.052,0.396,0.031,0.396,0.258v25.548
			c0,0.27-0.127,0.451-0.396,0.55l-84.936,30.917v8.693l84.936-30.913c0.27-0.052,0.396,0.036,0.396,0.262v25.544
			c0,0.273-0.127,0.455-0.396,0.551L126.084,207.73c-0.321,0.118-0.476,0.039-0.476-0.23V111.649z"/>
	</g>
</g>
</svg>
