<?xml version="1.0" encoding="utf-8"?>
<!-- Generator: Adobe Illustrator 16.0.0, SVG Export Plug-In . SVG Version: 6.00 Build 0)  -->
<!DOCTYPE svg PUBLIC "-//W3C//DTD SVG 1.1//EN" "http://www.w3.org/Graphics/SVG/1.1/DTD/svg11.dtd">
<svg version="1.1" id="Layer_1" xmlns="http://www.w3.org/2000/svg" xmlns:xlink="http://www.w3.org/1999/xlink" x="0px" y="0px"
	 width="489.959px" height="331.764px" viewBox="0 0 489.959 331.764" enable-background="new 0 0 489.959 331.764"
	 xml:space="preserve">
<g id="Layer_1_1_">
	<g>
		<path fill="#FFFFFF" d="M169.021,16.12c0.052-0.331,0.262-0.445,0.617-0.309L319.931,70.52c0.365,0.188,0.558,0.433,0.558,0.729
			v33.756c0,0.366-0.183,0.478-0.558,0.354L207.67,64.49v58.098l112.261,40.863c0.365,0.189,0.558,0.427,0.558,0.726v33.769
			c0,0.358-0.183,0.475-0.558,0.336l-150.292-54.71c-0.422-0.146-0.617-0.406-0.617-0.771L169.021,16.12L169.021,16.12z"/>
		<path fill="#FFFFFF" d="M329.396,71.25c0.057-0.37,0.266-0.626,0.612-0.759L480.32,15.783c0.354-0.071,0.545,0.052,0.545,0.336
			v33.767c0,0.354-0.183,0.607-0.545,0.73L368.049,91.469v11.766L480.32,62.365c0.354-0.062,0.545,0.057,0.545,0.346v33.765
			c0,0.357-0.183,0.603-0.545,0.729L368.049,138.07v11.48l112.271-40.856c0.354-0.07,0.545,0.048,0.545,0.347v33.756
			c0,0.355-0.183,0.601-0.545,0.735L330.01,198.235c-0.403,0.161-0.612,0.053-0.612-0.304L329.396,71.25L329.396,71.25z"/>
		<path fill="#FFFFFF" d="M7.326,71.264c0.062-0.374,0.27-0.643,0.625-0.766l150.308-54.712c0.346-0.062,0.517,0.047,0.517,0.341
			v33.769c0,0.352-0.161,0.598-0.517,0.721L45.994,91.475v11.758l112.265-40.858c0.346-0.072,0.517,0.047,0.517,0.342v33.771
			c0,0.354-0.161,0.594-0.517,0.727L45.994,138.071v11.503l112.265-40.869c0.346-0.071,0.517,0.047,0.517,0.337v33.77
			c0,0.354-0.161,0.597-0.517,0.726L7.952,198.24c-0.422,0.156-0.625,0.053-0.625-0.309L7.326,71.264L7.326,71.264z"/>
	</g>
</g>
<g>
	<g>
		<path fill="#FFFFFF" d="M31.179,299.032l20.699-24.299c5.25-6.15,7.95-11.55,7.95-16.35c0-8.399-3.75-12.75-11.399-12.75
			c-5.25,0-9,2.4-10.2,4.8c2.7,0.45,4.95,2.55,4.95,5.7c0,3.149-2.7,5.7-5.85,5.7s-6.6-2.551-6.6-7.05c0-5.851,6-13.95,18.749-13.95
			c13.5,0,20.699,6.601,20.699,16.05c0,4.95-3.9,12.6-12.6,21.299l-15.899,16.05h23.999c0,0,2.1-5.25,2.1-10.5
			c0-1.05,0.9-2.25,2.4-2.25c1.65,0,2.4,1.2,2.4,2.25c0,1.95-1.65,7.95-1.65,15v2.699c0,1.65-1.05,2.7-2.25,2.7
			c-1.35,0-6-0.6-8.25-0.6l-27.749-0.15C29.979,303.382,29.379,301.132,31.179,299.032z"/>
		<path fill="#FFFFFF" d="M101.977,304.582c-11.85,0-21.75-12.75-21.75-31.799c0-19.05,9.9-31.949,21.75-31.949
			c11.999,0,21.899,12.899,21.899,31.949C123.875,291.832,113.976,304.582,101.977,304.582z M101.977,245.784
			c-7.35,0-11.4,6.6-11.4,26.999s4.05,26.999,11.4,26.999c7.35,0,11.549-6.6,11.549-26.999S109.326,245.784,101.977,245.784z"/>
		<path fill="#FFFFFF" d="M130.176,299.032l20.699-24.299c5.25-6.15,7.95-11.55,7.95-16.35c0-8.399-3.75-12.75-11.399-12.75
			c-5.25,0-9,2.4-10.2,4.8c2.7,0.45,4.95,2.55,4.95,5.7c0,3.149-2.7,5.7-5.85,5.7s-6.6-2.551-6.6-7.05c0-5.851,6-13.95,18.749-13.95
			c13.5,0,20.699,6.601,20.699,16.05c0,4.95-3.9,12.6-12.6,21.299l-15.899,16.05h23.999c0,0,2.1-5.25,2.1-10.5
			c0-1.05,0.9-2.25,2.4-2.25c1.65,0,2.4,1.2,2.4,2.25c0,1.95-1.65,7.95-1.65,15v2.699c0,1.65-1.05,2.7-2.25,2.7
			c-1.35,0-6-0.6-8.25-0.6l-27.749-0.15C128.977,303.382,128.376,301.132,130.176,299.032z"/>
		<path fill="#FFFFFF" d="M200.973,304.582c-11.849,0-21.749-12.75-21.749-31.799c0-19.05,9.9-31.949,21.749-31.949
			c12,0,21.899,12.899,21.899,31.949C222.872,291.832,212.973,304.582,200.973,304.582z M200.973,245.784
			c-7.35,0-11.399,6.6-11.399,26.999s4.05,26.999,11.399,26.999c7.35,0,11.55-6.6,11.55-26.999S208.323,245.784,200.973,245.784z"/>
		<path fill="#FFFFFF" d="M275.521,270.983c0,2.1-1.351,3.449-2.851,3.449c-2.1,0-3-0.75-16.199-0.75h-2.399
			c-13.05,0-14.1,0.75-16.05,0.75c-1.35,0-2.85-1.35-2.85-3.449c0-2.101,1.5-3.3,2.85-3.3c1.95,0,3.15,0.6,16.05,0.6h2.399
			c13.05,0,14.1-0.6,16.199-0.6C274.171,267.683,275.521,268.883,275.521,270.983z"/>
		<path fill="#FFFFFF" d="M285.422,299.032l20.698-24.299c5.25-6.15,7.95-11.55,7.95-16.35c0-8.399-3.75-12.75-11.399-12.75
			c-5.25,0-9,2.4-10.2,4.8c2.7,0.45,4.95,2.55,4.95,5.7c0,3.149-2.7,5.7-5.85,5.7c-3.15,0-6.6-2.551-6.6-7.05
			c0-5.851,6-13.95,18.749-13.95c13.499,0,20.699,6.601,20.699,16.05c0,4.95-3.899,12.6-12.6,21.299l-15.899,16.05h23.999
			c0,0,2.1-5.25,2.1-10.5c0-1.05,0.9-2.25,2.4-2.25c1.649,0,2.399,1.2,2.399,2.25c0,1.95-1.649,7.95-1.649,15v2.699
			c0,1.65-1.05,2.7-2.25,2.7c-1.35,0-6-0.6-8.25-0.6l-27.749-0.15C284.222,303.382,283.621,301.132,285.422,299.032z"/>
		<path fill="#FFFFFF" d="M356.219,304.582c-11.85,0-21.749-12.75-21.749-31.799c0-19.05,9.899-31.949,21.749-31.949
			c11.999,0,21.898,12.899,21.898,31.949C378.117,291.832,368.218,304.582,356.219,304.582z M356.219,245.784
			c-7.35,0-11.399,6.6-11.399,26.999s4.05,26.999,11.399,26.999s11.549-6.6,11.549-26.999S363.568,245.784,356.219,245.784z"/>
		<path fill="#FFFFFF" d="M384.419,299.032l20.699-24.299c5.249-6.15,7.949-11.55,7.949-16.35c0-8.399-3.75-12.75-11.399-12.75
			c-5.25,0-9,2.4-10.2,4.8c2.7,0.45,4.95,2.55,4.95,5.7c0,3.149-2.7,5.7-5.85,5.7c-3.15,0-6.6-2.551-6.6-7.05
			c0-5.851,6-13.95,18.749-13.95c13.499,0,20.699,6.601,20.699,16.05c0,4.95-3.9,12.6-12.6,21.299l-15.899,16.05h23.999
			c0,0,2.1-5.25,2.1-10.5c0-1.05,0.9-2.25,2.4-2.25c1.649,0,2.399,1.2,2.399,2.25c0,1.95-1.649,7.95-1.649,15v2.699
			c0,1.65-1.05,2.7-2.25,2.7c-1.35,0-6-0.6-8.25-0.6l-27.748-0.15C383.219,303.382,382.618,301.132,384.419,299.032z"/>
		<path fill="#FFFFFF" d="M463.614,298.582c1.05,0,2.25,1.05,2.25,2.7c0,1.649-1.2,2.55-2.25,2.55c-1.5,0-2.4-0.75-14.699-0.75
			h-0.601c-12.149,0-13.049,0.75-14.549,0.75c-1.2,0-2.25-0.9-2.25-2.55c0-1.65,1.05-2.7,2.25-2.7c1.5,0,2.399,0.15,9.6,0.15
			v-52.048c-7.2,0-10.05,0.449-11.55,0.449c-1.05,0-2.25-1.05-2.25-2.699c0-1.5,1.2-2.55,2.25-2.55c1.5,0,4.35,0.3,11.55,0.3
			c2.399,0,7.05-0.75,8.399-0.75c1.05,0,2.25,1.05,2.25,2.699c0,2.4,0,54.599,0,54.599
			C461.214,298.732,462.114,298.582,463.614,298.582z"/>
	</g>
</g>
</svg>
