<?xml version="1.0" encoding="utf-8"?>
<!-- Generator: Adobe Illustrator 16.0.0, SVG Export Plug-In . SVG Version: 6.00 Build 0)  -->
<!DOCTYPE svg PUBLIC "-//W3C//DTD SVG 1.1//EN" "http://www.w3.org/Graphics/SVG/1.1/DTD/svg11.dtd">
<svg version="1.1" id="Layer_1" xmlns="http://www.w3.org/2000/svg" xmlns:xlink="http://www.w3.org/1999/xlink" x="0px" y="0px"
	 width="392.667px" height="147.666px" viewBox="-105 -52.5 392.667 147.666" enable-background="new -105 -52.5 392.667 147.666"
	 xml:space="preserve">
<g id="Symbols">
	<g id="Top-Nav-About" transform="translate(-133.000000, -56.000000)">
		<g id="SEMI-4c" transform="translate(133.000000, 56.000000)">
			<path id="Shape" d="M43.751,14.307c-2.002-0.363-4.369-0.455-7.009-0.363c-8.011,9.623-20.846,17.974-29.403,19.064
				c-2.094,0.271-3.641,0.09-4.916-0.455c0.819,0.727,2.185,1.363,4.096,1.727c8.193,1.633,23.212-1.545,33.499-7.082
				C50.305,21.66,52.035,15.85,43.751,14.307z"/>
			<path id="Shape_1_" fill="#55A646" d="M12.164,17.303c8.557-5.174,19.662-8.897,29.129-10.077
				c4.005-7.535,2.093-12.346-5.371-11.347C26.911-2.942,13.165,6.318,5.337,16.486C-0.398,23.93-1.399,29.74,1.877,32.01
				C-0.489,28.469,3.152,22.84,12.164,17.303z"/>
			<path id="Shape_2_" d="M70.514,16.576l-4.643-1.271c-1.274-0.363-1.911-0.908-1.911-1.634c0-1.271,2.185-1.907,4.278-1.907
				c1.911,0,3.186,0.636,4.188,1.09c0.637,0.272,1.183,0.545,1.729,0.545c1.456,0,1.729-0.636,1.729-1.181l-0.182-0.636
				c-0.819-1.089-4.37-1.997-8.102-1.997c-3.641,0-7.373,1.635-7.373,4.267c0,2.271,2.185,3.177,4.096,3.722l5.28,1.453
				c1.548,0.453,3.004,0.908,3.004,2.179c0,1.181-1.639,2.36-4.733,2.36c-2.458,0-4.005-0.816-5.098-1.452
				c-0.729-0.364-1.274-0.727-1.82-0.727c-0.819,0-1.639,0.727-1.639,1.271c0,1.271,3.55,3.086,8.466,3.086
				c5.188,0,8.647-1.906,8.647-4.629C76.34,18.393,73.427,17.393,70.514,16.576z"/>
			<path id="Shape_3_" d="M93.271,9.585c-6.555,0-10.014,4.086-10.014,8.081c0,3.722,2.73,8.078,10.559,8.078
				c5.371,0,9.104-2.178,9.104-3.268c0-1.271-1.184-1.271-1.639-1.271c-0.547,0-1.092,0.273-1.729,0.727
				c-1.184,0.726-2.822,1.634-5.918,1.634c-3.822,0-6.281-2.36-6.555-4.721c0.455,0,13.928,0,13.928,0
				c1.549,0,2.275-0.453,2.275-1.453C103.193,13.581,100.098,9.585,93.271,9.585z M99.461,16.576c-0.455,0-12.016,0-12.381,0
				c0.273-2.451,2.367-4.812,6.191-4.812C97.004,11.764,99.188,14.215,99.461,16.576z"/>
			<path id="Shape_4_" d="M152.713,9.585c-1.092,0-1.729,0.545-1.729,1.544v12.982c0,0.998,0.637,1.543,1.729,1.543
				s1.73-0.545,1.73-1.543V11.129C154.443,10.13,153.805,9.585,152.713,9.585z"/>
			<path id="Shape_5_" d="M126.314,12.218c1.457-1.543,4.096-2.633,6.645-2.633c4.006,0,8.375,1.816,8.375,5.72v8.896
				c0,1-0.637,1.543-1.729,1.543c-1.094,0-1.73-0.543-1.73-1.543v-8.442c0-2.542-1.639-3.723-4.916-3.723
				c-2.457,0-5.006,1.362-5.006,3.723v8.442c0,1-0.637,1.543-1.729,1.543c-1.094,0-1.73-0.543-1.73-1.543v-8.442
				c0-2.451-2.641-3.812-5.006-3.812c-3.369,0-4.916,1.271-4.916,3.812v8.442c0,1-0.637,1.543-1.73,1.543
				c-1.092,0-1.729-0.543-1.729-1.543v-8.896c0-3.903,4.369-5.72,8.375-5.72c2.639,0,5.188,0.999,6.645,2.633l0.182,0.091V12.218z"
				/>
			<path id="Shape_6_" d="M159.359,10.312h-0.457c-0.09,0-0.182-0.091-0.182-0.182c0-0.09,0.092-0.182,0.182-0.182h1.367
				c0.09,0,0.182,0.092,0.182,0.182c0,0.091-0.092,0.182-0.182,0.182h-0.455v1.635c0,0.09-0.092,0.182-0.184,0.182
				c-0.182,0-0.182-0.092-0.182-0.182v-1.635H159.359z M160.725,10.312c0-0.271,0.09-0.363,0.271-0.363c0.092,0,0.273,0,0.365,0.182
				l0.547,1.362l0.455-1.362c0.09-0.182,0.182-0.182,0.363-0.182S163,10.041,163,10.312v1.635c0,0.09-0.092,0.182-0.182,0.182
				c-0.092,0-0.184-0.092-0.184-0.182v-1.544l-0.545,1.544c0,0.182-0.092,0.182-0.182,0.182c-0.092,0-0.184-0.092-0.184-0.182
				l-0.545-1.544v1.544c0,0.09-0.092,0.182-0.184,0.182c-0.09,0-0.182-0.092-0.182-0.182v-1.635H160.725z"/>
		</g>
	</g>
</g>
</svg>
