<?xml version="1.0" encoding="utf-8"?>
<!-- Generator: Adobe Illustrator 16.0.0, SVG Export Plug-In . SVG Version: 6.00 Build 0)  -->
<!DOCTYPE svg PUBLIC "-//W3C//DTD SVG 1.1//EN" "http://www.w3.org/Graphics/SVG/1.1/DTD/svg11.dtd">
<svg version="1.1" xmlns="http://www.w3.org/2000/svg" xmlns:xlink="http://www.w3.org/1999/xlink" x="0px" y="0px"
	 width="667.924px" height="371px" viewBox="-32.708 0 667.924 371" enable-background="new -32.708 0 667.924 371"
	 xml:space="preserve">
<g id="Layer_1">
	<path fill="none" d="M-52.713,0h705.555v371H-52.713V0z"/>
	<path fill="#375A84" d="M300,168.992c6.674,0,13.222,1.274,18.938,3.686v22.015c-5.717-2.411-12.265-3.686-18.938-3.686V168.992z"
		/>
	<path fill="#4675AB" d="M300,91.939c26.697,0,52.889,5.098,75.754,14.743l-56.815,65.995c-5.717-2.411-12.265-3.686-18.938-3.686
		V91.939z"/>
	<path fill="#53747B" d="M318.938,172.677c5.027,2.121,9.255,5.055,12.326,8.556v22.015c-3.071-3.501-7.299-6.436-12.326-8.556
		V172.677z"/>
	<path fill="#619791" d="M375.754,106.682c20.109,8.483,37.018,20.219,49.306,34.223l-93.795,40.328
		c-3.071-3.501-7.299-6.435-12.326-8.556L375.754,106.682z"/>
	<path fill="#4A7637" d="M446.767,216.691c0,4.297-0.385,8.589-1.153,12.852v-22.015c0.769-4.263,1.153-8.556,1.153-12.853V216.691z
		"/>
	<path fill="#4A7637" d="M331.265,181.233c3.549,4.044,5.427,8.696,5.427,13.442v22.016c0-4.746-1.878-9.399-5.427-13.443V181.233z"
		/>
	<path fill="#6AA84F" d="M425.06,140.905c17.482,19.923,24.732,43.425,20.554,66.623l-109.21-9.64
		c1.045-5.799-0.768-11.675-5.139-16.655L425.06,140.905z"/>
	<path fill="#083A68" d="M445.613,229.543c-4.775,26.514-24.122,50.682-53.935,67.375v-22.016
		c29.812-16.693,49.159-40.86,53.935-67.374V229.543z"/>
	<path fill="#0B5394" d="M445.613,207.528c-4.775,26.514-24.122,50.681-53.935,67.374l-68.759-60.17
		c7.453-4.174,12.289-10.215,13.483-16.844L445.613,207.528z"/>
	<path fill="#35788B" d="M391.679,296.918c-19.473,10.903-42.594,18.154-67.18,21.068v-22.016
		c24.586-2.913,47.707-10.164,67.18-21.068V296.918z"/>
	<path fill="#4BACC6" d="M391.679,274.902c-19.473,10.904-42.594,18.155-67.18,21.068L306.125,220
		c6.146-0.729,11.927-2.541,16.795-5.268L391.679,274.902z"/>
	<path fill="#345EA2" d="M274.826,175.99c6.809-4.495,15.814-6.999,25.174-6.999v22.015c-9.359,0-18.365,2.503-25.174,6.998V175.99z
		"/>
	<path fill="#4A86E8" d="M199.306,119.933C226.542,101.953,262.563,91.939,300,91.939v77.053c-9.359,0-18.365,2.503-25.174,6.999
		L199.306,119.933z"/>
	<path fill="#0D3740" d="M273.221,177.117c0.519-0.387,1.054-0.763,1.605-1.127v22.015c-0.551,0.364-1.086,0.74-1.605,1.128V177.117
		z"/>
	<path fill="#134F5C" d="M192.885,124.442c2.073-1.549,4.214-3.053,6.42-4.51l75.521,56.058c-0.551,0.364-1.086,0.74-1.605,1.127
		L192.885,124.442z"/>
	<path fill="#2B5D8B" d="M263.479,192.197c0.782-5.642,4.207-10.943,9.742-15.08v22.016c-5.535,4.137-8.96,9.438-9.742,15.079
		V192.197z"/>
	<path fill="#3D85C6" d="M153.918,184.761c3.125-22.565,16.826-43.772,38.967-60.318l80.336,52.675
		c-5.535,4.137-8.96,9.438-9.742,15.08L153.918,184.761z"/>
	<path fill="#4E769A" d="M239.732,310.365c-52.646-16.596-86.499-53.258-86.499-93.674v-22.016
		c0,40.417,33.853,77.078,86.499,93.676V310.365z"/>
	<path fill="#4E769A" d="M263.308,194.676c0-0.828,0.057-1.654,0.171-2.479v22.015c-0.114,0.824-0.171,1.651-0.171,2.479V194.676z"
		/>
	<path fill="#699ECE" d="M239.732,288.352c-57.367-18.086-91.885-59.755-85.813-103.591l109.561,7.437
		c-1.518,10.959,7.112,21.376,21.454,25.897L239.732,288.352z"/>
	<path fill="#305A63" d="M324.499,317.986c-28.71,3.402-58.217,0.75-84.767-7.621v-22.014c26.55,8.369,56.057,11.021,84.767,7.619
		V317.986z"/>
	<path fill="#45818E" d="M324.499,295.971c-28.71,3.402-58.217,0.75-84.767-7.619l45.201-70.257
		c6.637,2.093,14.014,2.755,21.192,1.905L324.499,295.971z"/>
</g>
<g id="text">
	<g id="lines_left">
		<path fill="none" stroke="#757575" stroke-miterlimit="10" d="M-17.5,91.714l140-0.464l126.036,12.718"/>
		<path fill="none" stroke="#757575" stroke-miterlimit="10" d="M617,97.507H452.767l-115.419,3.136"/>
		<path fill="none" stroke="#757575" stroke-miterlimit="10" d="M616,133.507l-141.449-0.306l-76.378-7.83"/>
		<path fill="none" stroke="#757575" stroke-miterlimit="10" d="M618.5,181.573l-143.949-0.094l-38.265-7.406"/>
		<path fill="none" stroke="#757575" stroke-miterlimit="10" d="M616,242.387H452.767h-31.134"/>
		<path fill="none" stroke="#757575" stroke-miterlimit="10" d="M-18.456,136.942l140.5,0.036l79.199-11.199"/>
		<path fill="none" stroke="#757575" stroke-miterlimit="10" d="M-16.5,185.714l139,0.319l50.458-31.572"/>
		<path fill="none" stroke="#757575" stroke-miterlimit="10" d="M-17.5,243.636h164.733h32.15"/>
		<path fill="none" stroke="#757575" stroke-miterlimit="10" d="M-16.746,317.537l139.246-0.223l159.74-25.834"/>
		<path fill="none" stroke="#757575" stroke-miterlimit="10" d="M619.887,314.688L473.33,315.32l-116.324-31.575"/>
		<path fill="#9E9E9E" d="M250.536,103.968c0-1.104-0.896-2-2-2s-2,0.896-2,2s0.896,2,2,2S250.536,105.072,250.536,103.968"/>
		<path fill="#9E9E9E" d="M203.243,125.779c0-1.104-0.896-2-2-2s-2,0.896-2,2s0.896,2,2,2S203.243,126.883,203.243,125.779"/>
		<path fill="#9E9E9E" d="M174.958,154.461c0-1.104-0.896-2-2-2s-2,0.896-2,2s0.896,2,2,2S174.958,155.565,174.958,154.461"/>
		<path fill="#9E9E9E" d="M181.384,243.636c0-1.104-0.896-2-2-2s-2,0.896-2,2s0.896,2,2,2S181.384,244.74,181.384,243.636"/>
		<path fill="#9E9E9E" d="M284.24,291.48c0-1.104-0.896-2-2-2s-2,0.896-2,2c0,1.105,0.896,2,2,2S284.24,292.586,284.24,291.48"/>
		<path fill="#9E9E9E" d="M339.348,100.643c0-1.104-0.896-2-2-2s-2,0.896-2,2s0.896,2,2,2S339.348,101.747,339.348,100.643"/>
		<path fill="#9E9E9E" d="M400.173,125.371c0-1.104-0.896-2-2-2s-2,0.896-2,2s0.896,2,2,2S400.173,126.476,400.173,125.371"/>
		<path fill="#9E9E9E" d="M438.286,174.073c0-1.104-0.896-2-2-2s-2,0.896-2,2s0.896,2,2,2S438.286,175.178,438.286,174.073"/>
		<path fill="#9E9E9E" d="M423.633,242.387c0-1.104-0.896-2-2-2s-2,0.896-2,2c0,1.105,0.896,2,2,2S423.633,243.492,423.633,242.387"
			/>
		<path fill="#9E9E9E" d="M359.006,283.745c0-1.104-0.896-2-2-2s-2,0.896-2,2s0.896,2,2,2S359.006,284.85,359.006,283.745"/>
	</g>
	<g>
		<text transform="matrix(1 0 0 1 -17.5 87)" fill="#463F3C" font-family="'Montserrat-Black'" font-size="14">DOE</text>
		<text transform="matrix(1 0 0 1 -19 132.5)" fill="#463F3C" font-family="'Montserrat-Black'" font-size="14">NASA</text>
		<text transform="matrix(1 0 0 1 -17.5 181.5)" fill="#463F3C" font-family="'Montserrat-Black'" font-size="14">NIH</text>
		<text transform="matrix(1 0 0 1 -17.5 240)" fill="#463F3C" font-family="'Montserrat-Black'" font-size="14">NSF</text>
		<text transform="matrix(1 0 0 1 -18.2544 311.1602)" fill="#463F3C" font-family="'Montserrat-Black'" font-size="14">Industry</text>
		<text transform="matrix(1 0 0 1 544.0801 309.5752)" fill="#463F3C" font-family="'Montserrat-Black'" font-size="14">Air Force</text>
		<text transform="matrix(1 0 0 1 549.8281 327.5752)" fill="#646666" font-family="'Montserrat-Medium'" font-size="12">$2,743,963</text>
		<text transform="matrix(1 0 0 1 558.7324 254)" fill="#646666" font-family="'Montserrat-Medium'" font-size="12">$4,171,110</text>
		<text transform="matrix(1 0 0 1 546.8174 194.5)" fill="#646666" font-family="'Montserrat-Medium'" font-size="12">$3,660,047</text>
		<text transform="matrix(1 0 0 1 549.0137 145)" fill="#646666" font-family="'Montserrat-Medium'" font-size="12">$2,585,065</text>
		<text transform="matrix(1 0 0 1 549.8887 108.5)" fill="#646666" font-family="'Montserrat-Medium'" font-size="12">$2,935,378</text>
		<text transform="matrix(1 0 0 1 -17.5 103.5)" fill="#646666" font-family="'Montserrat-Medium'" font-size="12">$4,092,204</text>
		<text transform="matrix(1 0 0 1 -17.5 148.5)" fill="#646666" font-family="'Montserrat-Medium'" font-size="12">$335,469</text>
		<text transform="matrix(1 0 0 1 -17 198.5)" fill="#646666" font-family="'Montserrat-Medium'" font-size="12">$3,550,807</text>
		<text transform="matrix(1 0 0 1 -16.5 256)" fill="#646666" font-family="'Montserrat-Medium'" font-size="12">$6,734,526</text>
		<text transform="matrix(1 0 0 1 -17.7544 331.1602)" fill="#646666" font-family="'Montserrat-Medium'" font-size="12">$3,197,729</text>
		<text transform="matrix(1 0 0 1 577.666 236.5)" fill="#463F3C" font-family="'Montserrat-Black'" font-size="14">Navy</text>
		<text transform="matrix(1 0 0 1 574.6562 177)" fill="#463F3C" font-family="'Montserrat-Black'" font-size="14">Army</text>
		<text transform="matrix(1 0 0 1 446.1943 75)"><tspan x="0" y="0" fill="#463F3C" font-family="'Montserrat-Black'" font-size="14">Other Federal, State,</tspan><tspan x="5.124" y="16.8" fill="#463F3C" font-family="'Montserrat-Black'" font-size="14">Foreign, Foundation</tspan></text>
		<text transform="matrix(1 0 0 1 581.6006 129)" fill="#463F3C" font-family="'Montserrat-Black'" font-size="14">DOD</text>
	</g>
	<g id="percent_4_">
		<text transform="matrix(1 0 0 1 313.4805 119)" fill="#EAEBE6" font-family="'Montserrat-Black'" font-size="12">8.6%</text>
		<text transform="matrix(1 0 0 1 240.8325 121)" fill="#EAEBE6" font-family="'Montserrat-Black'" font-size="12">12.0%</text>
		<text transform="matrix(1 0 0 1 364.377 141)" fill="#EAEBE6" font-family="'Montserrat-Black'" font-size="12">7.6%</text>
		<text transform="matrix(1 0 0 1 386.9922 179.5)" fill="#EAEBE6" font-family="'Montserrat-Black'" font-size="12">10.8%</text>
		<text transform="matrix(1 0 0 1 379.127 238.0381)" fill="#EAEBE6" font-family="'Montserrat-Black'" font-size="12">12.3%</text>
		<text transform="matrix(1 0 0 1 182.5845 165.5)" fill="#EAEBE6" font-family="'Montserrat-Black'" font-size="12">10.4%</text>
		<text transform="matrix(1 0 0 1 191.3643 242)" fill="#EAEBE6" font-family="'Montserrat-Black'" font-size="12">19.8%</text>
		<text transform="matrix(1 0 0 1 272.5723 275)" fill="#EAEBE6" font-family="'Montserrat-Black'" font-size="12">9.4%</text>
		<text transform="matrix(1 0 0 1 333.3965 275.5)" fill="#EAEBE6" font-family="'Montserrat-Black'" font-size="12">8.1%</text>
		<text transform="matrix(1 0 0 1 166.6904 122.5)" fill="#463F3C" font-family="'Montserrat-Black'" font-size="10">1.0%</text>
	</g>
</g>
</svg>
