<?xml version="1.0" encoding="utf-8"?>
<!-- Generator: Adobe Illustrator 16.0.0, SVG Export Plug-In . SVG Version: 6.00 Build 0)  -->
<!DOCTYPE svg PUBLIC "-//W3C//DTD SVG 1.1//EN" "http://www.w3.org/Graphics/SVG/1.1/DTD/svg11.dtd">
<svg version="1.1" id="Layer_1" xmlns="http://www.w3.org/2000/svg" xmlns:xlink="http://www.w3.org/1999/xlink" x="0px" y="0px"
	 width="461px" height="390px" viewBox="0 0 461 390" enable-background="new 0 0 461 390" xml:space="preserve">
<g id="Layer_2">
</g>
<g id="Layer_3">
</g>
<g id="Layer_1_1_">
</g>
<g id="Layer_4">
</g>
<g id="Layer_4_copy">
</g>
<g id="ucla_ece">
	<g>
		<path fill="#FFFFFF" d="M169.105,204.624c0.042-0.269,0.213-0.358,0.504-0.252l122.657,44.651
			c0.299,0.152,0.452,0.351,0.452,0.598v27.551c0,0.295-0.146,0.385-0.452,0.282l-91.619-33.351v47.412l91.619,33.351
			c0.299,0.153,0.452,0.351,0.452,0.594v27.56c0,0.291-0.146,0.385-0.452,0.277l-122.657-44.65
			c-0.342-0.119-0.504-0.328-0.504-0.623V204.624z"/>
		<path fill="#FFFFFF" d="M299.984,249.621c0.052-0.303,0.223-0.514,0.504-0.624l122.675-44.646c0.29-0.057,0.444,0.043,0.444,0.272
			v27.563c0,0.285-0.146,0.49-0.444,0.595l-91.627,33.346v9.601l91.627-33.354c0.29-0.052,0.444,0.042,0.444,0.282v27.555
			c0,0.295-0.146,0.491-0.444,0.594l-91.627,33.354v9.378l91.627-33.348c0.29-0.06,0.444,0.035,0.444,0.283v27.551
			c0,0.289-0.146,0.486-0.444,0.598l-122.674,44.646c-0.333,0.129-0.505,0.039-0.505-0.248V249.621L299.984,249.621z"/>
		<path fill="#FFFFFF" d="M37.134,249.63c0.052-0.308,0.223-0.521,0.509-0.624l122.674-44.65c0.282-0.051,0.428,0.039,0.428,0.277
			v27.561c0,0.289-0.137,0.486-0.428,0.59l-91.623,33.35v9.596l91.623-33.347c0.282-0.06,0.428,0.034,0.428,0.278v27.562
			c0,0.286-0.137,0.482-0.428,0.59l-91.623,33.347v9.386l91.623-33.352c0.282-0.055,0.428,0.039,0.428,0.279v27.559
			c0,0.291-0.137,0.486-0.428,0.595L37.643,353.271c-0.342,0.123-0.509,0.037-0.509-0.252V249.63z"/>
	</g>
	<g>
		<g>
			<path fill="#FFFFFF" d="M27.672,98.761c-0.539-3.821-0.278-9.36-0.278-12.087l6.287-65.299h23.341l-6.394,65.867
				c-1.385,14.254,4.727,24.426,20.259,24.426c15.887,0,24.285-10.343,25.653-22.977l6.634-67.312h23.336l-6.463,66.457
				c-2.59,25.605-21.139,44.775-51.092,44.775C45.58,132.611,30.531,118.775,27.672,98.761"/>
			<path fill="#FFFFFF" d="M135.98,76.651c3.044-31.35,26.132-57.341,66.009-57.341c10.497,0,20.575,2.188,30.628,8.121
				l-2.642,25.896c-9.206-11.087-20.13-12.877-30.209-12.877c-24.806,0-38.432,15.784-40.372,35.765
				c-1.881,19.464,9.069,35.291,33.115,35.291c10.497,0,21.618-2.782,33.286-13.434l-2.59,26.576
				c-11.344,5.638-21.909,8.202-32.534,8.202C151.213,132.854,133.134,106.001,135.98,76.651"/>
			<path fill="#FFFFFF" d="M251.26,21.379h23.285l-8.488,88.687h33.338c2.334,0,10.291-0.111,12.463-0.227
				c-0.137,1.056-2.129,20.477-2.129,20.477h-69.017L251.26,21.379z"/>
			<path fill="#FFFFFF" d="M378.482,16.387l-1.607,0.025L313.148,130.32h24.722l8.967-17.271h44.896l5.606,17.271h24.67
				L378.482,16.387z M372.515,62.046c0.786-1.551,1.461-3.458,1.735-4.586h0.358c0.129,1.368,0.401,3,0.881,4.607
				c1.272,4.971,10.343,32.551,10.343,32.551h-29.388C356.453,94.619,372.199,62.743,372.515,62.046"/>
		</g>
	</g>
</g>
<g id="ucla_ece_white">
</g>
</svg>
