<?xml version="1.0" encoding="utf-8"?>
<!-- Generator: Adobe Illustrator 16.0.0, SVG Export Plug-In . SVG Version: 6.00 Build 0)  -->
<!DOCTYPE svg PUBLIC "-//W3C//DTD SVG 1.1//EN" "http://www.w3.org/Graphics/SVG/1.1/DTD/svg11.dtd">
<svg version="1.1" id="Layer_1" xmlns="http://www.w3.org/2000/svg" xmlns:xlink="http://www.w3.org/1999/xlink" x="0px" y="0px"
	 width="616.5px" height="173px" viewBox="0 313.5 616.5 173" enable-background="new 0 313.5 616.5 173" xml:space="preserve">
<g>
	<g>
		<path fill="#FFFFFF" d="M278.784,386.064h8.928c0.576,5.472,3.744,7.488,10.08,7.488c4.608,0,8.64-1.728,8.64-5.76
			c0-4.32-4.32-5.184-11.23-6.912c-8.064-1.728-15.552-4.032-15.552-13.248c0-8.928,7.2-13.536,17.28-13.536
			c10.08,0,16.704,4.896,17.28,14.112h-8.64c-0.576-4.608-4.032-6.912-8.64-6.912c-4.896,0-8.064,2.016-8.064,5.184
			c0,3.744,3.168,4.608,9.792,6.048c9.216,2.016,16.704,4.32,16.704,13.824c0,9.216-7.488,14.112-17.568,14.112
			C285.984,401.04,279.072,395.568,278.784,386.064z"/>
		<path fill="#FFFFFF" d="M339.552,396.432L339.552,396.432c-1.728,2.594-4.032,4.32-9.504,4.32c-6.624,0-11.23-3.456-11.23-9.792
			c0-7.2,5.76-9.504,12.96-10.368c5.472-0.864,7.774-1.152,7.774-3.744c0-2.304-1.728-3.744-5.472-3.744
			c-4.032,0-6.048,1.44-6.336,4.608h-7.488c0.288-5.76,4.608-10.656,13.824-10.656c9.792,0,13.536,4.32,13.536,11.808v16.416
			c0,2.592,0.288,4.032,1.15,4.606v0.288h-8.352C339.84,399.312,339.552,397.872,339.552,396.432z M339.552,388.368v-4.896
			c-1.438,0.864-3.744,1.44-6.048,2.016c-4.606,0.864-6.624,2.016-6.624,5.184s2.018,4.032,5.186,4.032
			C336.672,394.704,339.552,391.536,339.552,388.368z"/>
		<path fill="#FFFFFF" d="M352.8,367.632h8.354v4.32h0.288c1.728-2.88,4.896-5.184,9.504-5.184c4.03,0,7.486,2.304,8.928,5.76l0,0
			c2.304-3.456,5.472-5.76,9.792-5.76c6.912,0,10.656,4.32,10.656,11.52v21.6h-8.642v-20.16c0-3.744-1.728-5.472-4.896-5.472
			c-3.456,0-5.76,2.88-5.76,7.2v18.72h-8.642v-20.16c0-3.744-1.728-5.472-4.896-5.472c-3.456,0-5.761,2.88-5.761,7.2v18.72h-8.641
			v-32.832H352.8L352.8,367.632z"/>
		<path fill="#FFFFFF" d="M425.952,399.888v-3.744h-0.288c-2.304,2.882-4.608,4.608-9.216,4.608c-7.2,0-11.232-4.608-11.232-11.52
			v-21.6h8.642v20.16c0,3.744,1.728,5.76,5.472,5.76c4.032,0,6.624-2.88,6.624-7.2v-18.72h8.64v32.256H425.952L425.952,399.888z"/>
		<path fill="#FFFFFF" d="M438.048,383.76c0-9.504,6.624-16.992,15.84-16.992c10.368,0,15.841,8.064,15.841,19.584H446.4
			c0.574,4.896,3.456,8.064,8.352,8.064c3.456,0,5.184-1.44,6.336-4.032h8.354c-1.152,5.76-6.338,10.656-14.688,10.656
			C444.096,400.752,438.048,393.264,438.048,383.76z M446.688,380.304h14.399c-0.288-4.032-2.88-6.912-6.912-6.912
			C449.568,373.392,447.264,375.984,446.688,380.304z"/>
		<path fill="#FFFFFF" d="M474.048,354.96h8.642v44.928h-8.642V354.96z"/>
		<path fill="#FFFFFF" d="M487.872,354.96h8.64v7.776h-8.64V354.96z M487.872,367.632h8.64v32.256h-8.64V367.632z"/>
	</g>
</g>
<g>
	<rect x="16.992" y="340.848" fill="#0D7BB5" width="239.328" height="112.32"/>
	<g>
		<path fill="#FFFFFF" d="M55.296,407.664c-0.288-1.729,0-4.32,0-5.76l2.592-30.528h10.08l-2.88,30.816
			c-0.576,6.624,2.016,11.52,8.64,11.52c6.912,0,10.368-4.896,10.944-10.656l2.88-31.392h10.08l-2.88,31.104
			c-1.152,12.098-8.928,21.024-21.888,21.024C62.784,423.504,56.448,417.168,55.296,407.664"/>
		<path fill="#FFFFFF" d="M99.936,397.296c1.44-14.688,11.232-26.784,28.224-26.784c4.608,0,8.928,1.152,13.248,3.744l-1.152,12.096
			c-4.032-5.184-8.64-6.048-12.96-6.048c-10.656,0-16.416,7.488-17.28,16.704c-0.864,9.216,4.032,16.416,14.112,16.416
			c4.608,0,9.216-1.438,14.4-6.336l-1.152,12.384c-4.896,2.594-9.504,3.744-13.824,3.744
			C106.56,423.792,98.784,411.12,99.936,397.296"/>
		<path fill="#FFFFFF" d="M149.472,371.376h10.08l-3.744,41.472h14.4c0.864,0,4.32,0,5.472,0c0,0.576-0.864,9.504-0.864,9.504
			h-29.952L149.472,371.376z"/>
		<path fill="#FFFFFF" d="M201.312,390.384c0.288-0.864,0.576-1.728,0.864-2.016h0.288c0,0.576,0.288,1.44,0.288,2.016
			c0.576,2.304,4.32,15.266,4.32,15.266H194.4C194.4,405.648,201.312,390.672,201.312,390.384 M203.904,369.072h-0.576l-27.36,53.28
			h10.656l3.744-8.062h19.296l2.304,8.062h10.656L203.904,369.072z"/>
	</g>
</g>
<g>
	<g>
		<path fill="#FFFFFF" d="M277.92,430.416h3.168c0.288,4.32,2.88,6.336,7.776,6.336c3.456,0,6.048-1.439,6.048-4.608
			c0-3.454-2.88-4.318-7.488-5.184c-4.32-0.864-8.352-2.304-8.352-6.912c0-4.032,3.456-6.624,8.64-6.624
			c6.336,0,8.928,3.168,9.504,7.776h-2.88c-0.576-3.456-2.88-5.474-6.336-5.474s-5.76,1.44-5.76,4.032c0,2.88,2.88,3.744,6.624,4.32
			c4.896,0.864,9.216,2.304,9.216,7.776c0,4.606-3.744,7.198-9.216,7.198C281.664,439.344,278.208,435.6,277.92,430.416z"/>
		<path fill="#FFFFFF" d="M300.096,429.84c0-5.184,3.456-9.504,8.64-9.504c4.318,0,7.198,2.592,7.774,6.336h-2.88
			c-0.288-2.592-2.016-4.032-4.896-4.032c-3.744,0-5.76,3.168-5.76,7.2s2.016,7.2,5.76,7.2c2.88,0,4.606-1.728,4.896-4.608h2.88
			c-0.288,4.32-3.168,6.912-7.774,6.912C303.552,439.344,300.096,435.312,300.096,429.84z"/>
		<path fill="#FFFFFF" d="M322.272,423.216L322.272,423.216c1.438-1.728,3.168-2.88,5.76-2.88c3.744,0,6.048,2.016,6.048,5.76
			v12.672h-2.88v-12.384c0-2.304-1.44-3.744-4.032-3.744c-2.88,0-4.896,2.018-4.896,4.896v11.23h-2.882v-25.056h2.882V423.216z"/>
		<path fill="#FFFFFF" d="M336.96,429.84c0-5.184,3.456-9.504,8.64-9.504c5.474,0,8.642,4.32,8.642,9.504
			c0,5.186-3.168,9.504-8.642,9.504C340.416,439.344,336.96,435.312,336.96,429.84z M351.648,429.84c0-4.032-2.018-7.2-5.762-7.2
			s-5.76,3.168-5.76,7.2s2.016,7.2,5.76,7.2S351.648,433.872,351.648,429.84z"/>
		<path fill="#FFFFFF" d="M356.256,429.84c0-5.184,3.456-9.504,8.642-9.504c5.472,0,8.64,4.32,8.64,9.504
			c0,5.186-3.168,9.504-8.64,9.504C359.712,439.344,356.256,435.312,356.256,429.84z M370.944,429.84c0-4.032-2.018-7.2-5.762-7.2
			c-3.742,0-5.76,3.168-5.76,7.2s2.018,7.2,5.76,7.2C368.928,437.04,370.944,433.872,370.944,429.84z"/>
		<path fill="#FFFFFF" d="M376.704,414h2.88v25.056h-2.88V414z"/>
		<path fill="#FFFFFF" d="M387.936,429.84c0-5.184,3.456-9.504,8.642-9.504c5.472,0,8.64,4.32,8.64,9.504
			c0,5.186-3.168,9.504-8.64,9.504C391.392,439.344,387.936,435.312,387.936,429.84z M402.624,429.84c0-4.032-2.016-7.2-5.76-7.2
			s-5.761,3.168-5.761,7.2s2.017,7.2,5.761,7.2S402.624,433.872,402.624,429.84z"/>
		<path fill="#FFFFFF" d="M406.368,420.912h2.592v-2.88c0-3.168,1.729-4.32,4.896-4.32c0.574,0,1.15,0,1.438,0v2.304
			c-0.576,0-0.576,0-0.864,0c-1.728,0-2.592,0.576-2.592,2.018v2.88h3.456v2.304h-3.456v15.84h-2.88v-15.84h-2.592L406.368,420.912
			L406.368,420.912z"/>
		<path fill="#FFFFFF" d="M423.936,414h17.856v2.88h-14.688v8.064h13.248v2.592h-13.248v8.928h14.978v2.88h-18.146V414L423.936,414z
			"/>
		<path fill="#FFFFFF" d="M447.84,423.216L447.84,423.216c1.44-1.728,3.168-2.88,5.76-2.88c3.744,0,6.05,2.016,6.05,5.76v12.672
			h-2.882v-12.384c0-2.304-1.438-3.744-4.03-3.744c-2.88,0-4.896,2.018-4.896,4.896v11.23h-2.88v-18.144h2.88L447.84,423.216
			L447.84,423.216z"/>
		<path fill="#FFFFFF" d="M462.816,439.92h2.592c0.288,2.016,2.304,2.88,4.896,2.88c3.456,0,5.186-1.438,5.186-4.606V435.6l0,0
			c-1.44,1.729-2.88,2.882-5.474,2.882c-4.606,0-8.062-3.744-8.062-8.93c0-5.76,3.456-8.928,7.775-8.928
			c2.593,0,4.319,1.152,5.473,2.88l0,0V421.2h2.88v17.28c0,4.896-3.168,6.91-8.064,6.91
			C465.984,445.104,463.104,443.088,462.816,439.92z M476.064,429.264c0-4.03-1.729-6.336-5.474-6.336
			c-3.456,0-5.184,2.592-5.184,6.624s1.728,6.624,5.184,6.624C474.624,435.888,476.064,433.008,476.064,429.264z"/>
		<path fill="#FFFFFF" d="M482.4,414h2.88v3.456h-2.88V414z M482.4,420.912h2.88v18.144h-2.88V420.912z"/>
		<path fill="#FFFFFF" d="M491.616,423.216L491.616,423.216c1.438-1.728,3.168-2.88,5.76-2.88c3.744,0,6.048,2.016,6.048,5.76
			v12.672h-2.88v-12.384c0-2.304-1.438-3.744-4.032-3.744c-2.88,0-4.896,2.018-4.896,4.896v11.23h-2.88v-18.144h2.88V423.216
			L491.616,423.216z"/>
		<path fill="#FFFFFF" d="M506.304,429.84c0-5.184,3.456-9.504,8.642-9.504c5.472,0,8.352,4.32,8.352,10.08h-14.112
			c0.288,3.744,2.306,6.624,5.762,6.624c2.592,0,4.318-1.152,4.896-3.744h2.88c-0.862,4.032-3.744,6.048-7.774,6.048
			C509.472,439.344,506.304,435.312,506.304,429.84z M509.184,428.4h10.944c-0.288-3.744-2.016-5.762-5.184-5.762
			C511.488,422.64,509.76,425.232,509.184,428.4z"/>
		<path fill="#FFFFFF" d="M525.024,429.84c0-5.184,3.456-9.504,8.64-9.504c5.472,0,8.352,4.32,8.352,10.08h-14.11
			c0.288,3.744,2.304,6.624,5.76,6.624c2.592,0,4.32-1.152,4.896-3.744h2.882c-0.864,4.032-3.744,6.048-7.776,6.048
			C528.192,439.344,525.024,435.312,525.024,429.84z M527.904,428.4h10.942c-0.288-3.744-2.016-5.762-5.184-5.762
			C530.208,422.64,528.48,425.232,527.904,428.4z"/>
		<path fill="#FFFFFF" d="M547.488,423.792L547.488,423.792c1.15-1.728,3.168-3.168,5.472-3.168c0.576,0,0.864,0,1.152,0.288v2.88
			l0,0c-0.288,0-0.576-0.288-1.152-0.288c-2.88,0-5.184,2.016-5.184,5.472v10.08h-2.881v-18.144h2.881v2.88H547.488z"/>
		<path fill="#FFFFFF" d="M556.416,414h2.88v3.456h-2.88V414z M556.416,420.912h2.88v18.144h-2.88V420.912z"/>
		<path fill="#FFFFFF" d="M565.632,423.216L565.632,423.216c1.44-1.728,3.168-2.88,5.76-2.88c3.744,0,6.05,2.016,6.05,5.76v12.672
			h-2.881v-12.384c0-2.304-1.439-3.744-4.031-3.744c-2.88,0-4.896,2.018-4.896,4.896v11.23h-2.88v-18.144h2.88L565.632,423.216
			L565.632,423.216z"/>
		<path fill="#FFFFFF" d="M580.896,439.92h2.592c0.288,2.016,2.304,2.88,4.896,2.88c3.456,0,5.186-1.438,5.186-4.606V435.6l0,0
			c-1.44,1.729-2.882,2.882-5.474,2.882c-4.606,0-8.062-3.744-8.062-8.93c0-5.76,3.456-8.928,7.774-8.928
			c2.594,0,4.32,1.152,5.474,2.88l0,0V421.2h2.88v17.28c0,4.896-3.168,6.91-8.064,6.91
			C583.776,445.104,581.184,443.088,580.896,439.92z M593.856,429.264c0-4.03-1.729-6.336-5.474-6.336
			c-3.456,0-5.184,2.592-5.184,6.624s1.728,6.624,5.184,6.624C592.416,435.888,593.856,433.008,593.856,429.264z"/>
	</g>
</g>
</svg>
