<?xml version="1.0" encoding="utf-8"?>
<!-- Generator: Adobe Illustrator 22.1.0, SVG Export Plug-In . SVG Version: 6.00 Build 0)  -->
<svg version="1.1" id="Layer_1" xmlns="http://www.w3.org/2000/svg" xmlns:xlink="http://www.w3.org/1999/xlink" x="0px" y="0px"
	 viewBox="0 0 212.5 51.7" style="enable-background:new 0 0 212.5 51.7;" xml:space="preserve">
<style type="text/css">
	.st0{fill:#231F20;}
	.st1{fill:#0D7BB5;}
	.st2{fill:#FFFFFF;}
</style>
<g>
	<g>
		<path class="st0" d="M96.8,22.4h3.1c0.2,1.9,1.3,2.6,3.5,2.6c1.6,0,3-0.6,3-2c0-1.5-1.5-1.8-3.9-2.4c-2.8-0.6-5.4-1.4-5.4-4.6
			c0-3.1,2.5-4.7,6-4.7c3.5,0,5.8,1.7,6,4.9h-3c-0.2-1.6-1.4-2.4-3-2.4c-1.7,0-2.8,0.7-2.8,1.8c0,1.3,1.1,1.6,3.4,2.1
			c3.2,0.7,5.8,1.5,5.8,4.8c0,3.2-2.6,4.9-6.1,4.9C99.3,27.6,96.9,25.7,96.8,22.4z"/>
		<path class="st0" d="M117.9,26L117.9,26c-0.6,0.9-1.4,1.5-3.3,1.5c-2.3,0-3.9-1.2-3.9-3.4c0-2.5,2-3.3,4.5-3.6
			c1.9-0.3,2.7-0.4,2.7-1.3c0-0.8-0.6-1.3-1.9-1.3c-1.4,0-2.1,0.5-2.2,1.6h-2.6c0.1-2,1.6-3.7,4.8-3.7c3.4,0,4.7,1.5,4.7,4.1v5.7
			c0,0.9,0.1,1.4,0.4,1.6v0.1h-2.9C118,27,117.9,26.5,117.9,26z M117.9,23.2v-1.7c-0.5,0.3-1.3,0.5-2.1,0.7
			c-1.6,0.3-2.3,0.7-2.3,1.8c0,1.1,0.7,1.4,1.8,1.4C116.9,25.4,117.9,24.3,117.9,23.2z"/>
		<path class="st0" d="M122.5,16h2.9v1.5h0.1c0.6-1,1.7-1.8,3.3-1.8c1.4,0,2.6,0.8,3.1,2h0c0.8-1.2,1.9-2,3.4-2c2.4,0,3.7,1.5,3.7,4
			v7.5h-3v-7c0-1.3-0.6-1.9-1.7-1.9c-1.2,0-2,1-2,2.5v6.5h-3v-7c0-1.3-0.6-1.9-1.7-1.9c-1.2,0-2,1-2,2.5v6.5h-3V16z"/>
		<path class="st0" d="M147.9,27.2v-1.3h-0.1c-0.8,1-1.6,1.6-3.2,1.6c-2.5,0-3.9-1.6-3.9-4V16h3v7c0,1.3,0.6,2,1.9,2
			c1.4,0,2.3-1,2.3-2.5V16h3v11.2H147.9z"/>
		<path class="st0" d="M152.1,21.6c0-3.3,2.3-5.9,5.5-5.9c3.6,0,5.5,2.8,5.5,6.8H155c0.2,1.7,1.2,2.8,2.9,2.8c1.2,0,1.8-0.5,2.2-1.4
			h2.9c-0.4,2-2.2,3.7-5.1,3.7C154.2,27.5,152.1,24.9,152.1,21.6z M155.1,20.4h5c-0.1-1.4-1-2.4-2.4-2.4
			C156.1,18,155.3,18.9,155.1,20.4z"/>
		<path class="st0" d="M164.6,11.6h3v15.6h-3V11.6z"/>
		<path class="st0" d="M169.4,11.6h3v2.7h-3V11.6z M169.4,16h3v11.2h-3V16z"/>
	</g>
</g>
<g>
	<rect x="5.9" y="6.7" class="st1" width="83.1" height="39"/>
	<g>
		<path class="st2" d="M19.2,29.9c-0.1-0.6,0-1.5,0-2l0.9-10.6h3.5l-1,10.7c-0.2,2.3,0.7,4,3,4c2.4,0,3.6-1.7,3.8-3.7l1-10.9h3.5
			l-1,10.8c-0.4,4.2-3.1,7.3-7.6,7.3C21.8,35.4,19.6,33.2,19.2,29.9"/>
		<path class="st2" d="M34.7,26.3c0.5-5.1,3.9-9.3,9.8-9.3c1.6,0,3.1,0.4,4.6,1.3l-0.4,4.2c-1.4-1.8-3-2.1-4.5-2.1
			c-3.7,0-5.7,2.6-6,5.8c-0.3,3.2,1.4,5.7,4.9,5.7c1.6,0,3.2-0.5,5-2.2l-0.4,4.3c-1.7,0.9-3.3,1.3-4.8,1.3
			C37,35.5,34.3,31.1,34.7,26.3"/>
		<path class="st2" d="M51.9,17.3h3.5l-1.3,14.4h5c0.3,0,1.5,0,1.9,0c0,0.2-0.3,3.3-0.3,3.3H50.3L51.9,17.3z"/>
		<path class="st2" d="M69.9,23.9c0.1-0.3,0.2-0.6,0.3-0.7c0,0,0.1,0,0.1,0c0,0.2,0.1,0.5,0.1,0.7c0.2,0.8,1.5,5.3,1.5,5.3h-4.4
			C67.5,29.2,69.9,24,69.9,23.9 M70.8,16.5l-0.2,0L61.1,35h3.7l1.3-2.8h6.7l0.8,2.8h3.7L70.8,16.5z"/>
	</g>
</g>
<g>
	<g>
		<path class="st0" d="M96.5,37.8h1.1c0.1,1.5,1,2.2,2.7,2.2c1.2,0,2.1-0.5,2.1-1.6c0-1.2-1-1.5-2.6-1.8c-1.5-0.3-2.9-0.8-2.9-2.4
			c0-1.4,1.2-2.3,3-2.3c2.2,0,3.1,1.1,3.3,2.7h-1c-0.2-1.2-1-1.9-2.2-1.9c-1.2,0-2,0.5-2,1.4c0,1,1,1.3,2.3,1.5
			c1.7,0.3,3.2,0.8,3.2,2.7c0,1.6-1.3,2.5-3.2,2.5C97.8,40.9,96.6,39.6,96.5,37.8z"/>
		<path class="st0" d="M104.2,37.6c0-1.8,1.2-3.3,3-3.3c1.5,0,2.5,0.9,2.7,2.2h-1c-0.1-0.9-0.7-1.4-1.7-1.4c-1.3,0-2,1.1-2,2.5
			c0,1.4,0.7,2.5,2,2.5c1,0,1.6-0.6,1.7-1.6h1c-0.1,1.5-1.1,2.4-2.7,2.4C105.4,40.9,104.2,39.5,104.2,37.6z"/>
		<path class="st0" d="M111.9,35.3L111.9,35.3c0.5-0.6,1.1-1,2-1c1.3,0,2.1,0.7,2.1,2v4.4h-1v-4.3c0-0.8-0.5-1.3-1.4-1.3
			c-1,0-1.7,0.7-1.7,1.7v3.9h-1v-8.7h1V35.3z"/>
		<path class="st0" d="M117,37.6c0-1.8,1.2-3.3,3-3.3c1.9,0,3,1.5,3,3.3c0,1.8-1.1,3.3-3,3.3C118.2,40.9,117,39.5,117,37.6z
			 M122.1,37.6c0-1.4-0.7-2.5-2-2.5s-2,1.1-2,2.5c0,1.4,0.7,2.5,2,2.5S122.1,39,122.1,37.6z"/>
		<path class="st0" d="M123.7,37.6c0-1.8,1.2-3.3,3-3.3c1.9,0,3,1.5,3,3.3c0,1.8-1.1,3.3-3,3.3C124.9,40.9,123.7,39.5,123.7,37.6z
			 M128.8,37.6c0-1.4-0.7-2.5-2-2.5c-1.3,0-2,1.1-2,2.5c0,1.4,0.7,2.5,2,2.5C128.1,40.1,128.8,39,128.8,37.6z"/>
		<path class="st0" d="M130.8,32.1h1v8.7h-1V32.1z"/>
		<path class="st0" d="M134.7,37.6c0-1.8,1.2-3.3,3-3.3c1.9,0,3,1.5,3,3.3c0,1.8-1.1,3.3-3,3.3C135.9,40.9,134.7,39.5,134.7,37.6z
			 M139.8,37.6c0-1.4-0.7-2.5-2-2.5c-1.3,0-2,1.1-2,2.5c0,1.4,0.7,2.5,2,2.5C139.1,40.1,139.8,39,139.8,37.6z"/>
		<path class="st0" d="M141.1,34.5h0.9v-1c0-1.1,0.6-1.5,1.7-1.5c0.2,0,0.4,0,0.5,0v0.8c-0.2,0-0.2,0-0.3,0c-0.6,0-0.9,0.2-0.9,0.7
			v1h1.2v0.8H143v5.5h-1v-5.5h-0.9V34.5z"/>
		<path class="st0" d="M147.2,32.1h6.2v1h-5.1v2.8h4.6v0.9h-4.6v3.1h5.2v1h-6.3V32.1z"/>
		<path class="st0" d="M155.5,35.3L155.5,35.3c0.5-0.6,1.1-1,2-1c1.3,0,2.1,0.7,2.1,2v4.4h-1v-4.3c0-0.8-0.5-1.3-1.4-1.3
			c-1,0-1.7,0.7-1.7,1.7v3.9h-1v-6.3h1V35.3z"/>
		<path class="st0" d="M160.7,41.1h0.9c0.1,0.7,0.8,1,1.7,1c1.2,0,1.8-0.5,1.8-1.6v-0.9h0c-0.5,0.6-1,1-1.9,1
			c-1.6,0-2.8-1.3-2.8-3.1c0-2,1.2-3.1,2.7-3.1c0.9,0,1.5,0.4,1.9,1h0v-0.8h1v6c0,1.7-1.1,2.4-2.8,2.4
			C161.8,42.9,160.8,42.2,160.7,41.1z M165.3,37.4c0-1.4-0.6-2.2-1.9-2.2c-1.2,0-1.8,0.9-1.8,2.3c0,1.4,0.6,2.3,1.8,2.3
			C164.8,39.7,165.3,38.7,165.3,37.4z"/>
		<path class="st0" d="M167.5,32.1h1v1.2h-1V32.1z M167.5,34.5h1v6.3h-1V34.5z"/>
		<path class="st0" d="M170.7,35.3L170.7,35.3c0.5-0.6,1.1-1,2-1c1.3,0,2.1,0.7,2.1,2v4.4h-1v-4.3c0-0.8-0.5-1.3-1.4-1.3
			c-1,0-1.7,0.7-1.7,1.7v3.9h-1v-6.3h1V35.3z"/>
		<path class="st0" d="M175.8,37.6c0-1.8,1.2-3.3,3-3.3c1.9,0,2.9,1.5,2.9,3.5h-4.9c0.1,1.3,0.8,2.3,2,2.3c0.9,0,1.5-0.4,1.7-1.3h1
			c-0.3,1.4-1.3,2.1-2.7,2.1C176.9,40.9,175.8,39.5,175.8,37.6z M176.8,37.1h3.8c-0.1-1.3-0.7-2-1.8-2C177.6,35.1,177,36,176.8,37.1
			z"/>
		<path class="st0" d="M182.3,37.6c0-1.8,1.2-3.3,3-3.3c1.9,0,2.9,1.5,2.9,3.5h-4.9c0.1,1.3,0.8,2.3,2,2.3c0.9,0,1.5-0.4,1.7-1.3h1
			c-0.3,1.4-1.3,2.1-2.7,2.1C183.4,40.9,182.3,39.5,182.3,37.6z M183.3,37.1h3.8c-0.1-1.3-0.7-2-1.8-2
			C184.1,35.1,183.5,36,183.3,37.1z"/>
		<path class="st0" d="M190.1,35.5L190.1,35.5c0.4-0.6,1.1-1.1,1.9-1.1c0.2,0,0.3,0,0.4,0.1v1h0c-0.1,0-0.2-0.1-0.4-0.1
			c-1,0-1.8,0.7-1.8,1.9v3.5h-1v-6.3h1V35.5z"/>
		<path class="st0" d="M193.2,32.1h1v1.2h-1V32.1z M193.2,34.5h1v6.3h-1V34.5z"/>
		<path class="st0" d="M196.4,35.3L196.4,35.3c0.5-0.6,1.1-1,2-1c1.3,0,2.1,0.7,2.1,2v4.4h-1v-4.3c0-0.8-0.5-1.3-1.4-1.3
			c-1,0-1.7,0.7-1.7,1.7v3.9h-1v-6.3h1V35.3z"/>
		<path class="st0" d="M201.7,41.1h0.9c0.1,0.7,0.8,1,1.7,1c1.2,0,1.8-0.5,1.8-1.6v-0.9h0c-0.5,0.6-1,1-1.9,1
			c-1.6,0-2.8-1.3-2.8-3.1c0-2,1.2-3.1,2.7-3.1c0.9,0,1.5,0.4,1.9,1h0v-0.8h1v6c0,1.7-1.1,2.4-2.8,2.4
			C202.7,42.9,201.8,42.2,201.7,41.1z M206.2,37.4c0-1.4-0.6-2.2-1.9-2.2c-1.2,0-1.8,0.9-1.8,2.3c0,1.4,0.6,2.3,1.8,2.3
			C205.7,39.7,206.2,38.7,206.2,37.4z"/>
	</g>
</g>
</svg>
