<?xml version="1.0" encoding="utf-8"?>
<!-- Generator: Adobe Illustrator 16.0.0, SVG Export Plug-In . SVG Version: 6.00 Build 0)  -->
<!DOCTYPE svg PUBLIC "-//W3C//DTD SVG 1.1//EN" "http://www.w3.org/Graphics/SVG/1.1/DTD/svg11.dtd">
<svg version="1.1" id="Layer_1" xmlns="http://www.w3.org/2000/svg" xmlns:xlink="http://www.w3.org/1999/xlink" x="0px" y="0px"
	 width="593.833px" height="258.688px" viewBox="0 0 593.833 258.688" enable-background="new 0 0 593.833 258.688"
	 xml:space="preserve">
<g id="Layer_2">
	<rect x="-1" y="-0.001" fill="#00588A" width="593.833" height="258.688"/>
</g>
<g id="Layer_3">
	<g>
		<g>
			<path fill="#FFFFFF" d="M83.448,155.088c-0.615-4.327-0.32-10.605-0.32-13.7l7.125-74.034h26.464l-7.247,74.678
				c-1.571,16.157,5.362,27.69,22.966,27.69c18.012,0,27.531-11.723,29.086-26.055l7.514-76.313h26.454l-7.322,75.354
				c-2.941,29.021-23.963,50.755-57.929,50.755C103.751,193.451,86.687,177.776,83.448,155.088"/>
			<path fill="#FFFFFF" d="M206.239,130.016c3.459-35.541,29.617-65.007,74.844-65.007c11.897,0,23.327,2.48,34.726,9.203
				l-3.015,29.361c-10.422-12.562-22.812-14.598-34.236-14.598c-28.135,0-43.571,17.897-45.782,40.549
				c-2.126,22.063,10.302,40.013,37.56,40.013c11.899,0,24.509-3.162,37.727-15.231l-2.933,30.137
				c-12.857,6.396-24.839,9.296-36.878,9.296C223.512,193.749,203.02,163.29,206.239,130.016"/>
			<path fill="#FFFFFF" d="M336.944,67.35h26.386l-9.629,100.54h37.811c2.656,0,11.66-0.122,14.121-0.255
				c-0.152,1.196-2.414,23.228-2.414,23.228h-78.246L336.944,67.35z"/>
			<path fill="#FFFFFF" d="M481.183,61.696l-1.828,0.029l-72.244,129.138h28.043l10.156-19.585h50.904l6.363,19.585h27.967
				L481.183,61.696z M474.417,113.461c0.871-1.758,1.644-3.92,1.955-5.198h0.42c0.143,1.55,0.461,3.399,0.992,5.223
				c1.432,5.637,11.727,36.896,11.727,36.896h-33.307C456.208,150.397,474.055,114.251,474.417,113.461"/>
		</g>
	</g>
</g>
<g id="Layer_1_1_">
</g>
<g id="Layer_4">
</g>
<g id="Layer_4_copy">
</g>
<g id="ucla_ece">
</g>
<g id="ucla_ece_white">
</g>
</svg>
