<?xml version="1.0" encoding="utf-8"?>
<!-- Generator: Adobe Illustrator 27.9.0, SVG Export Plug-In . SVG Version: 6.00 Build 0)  -->
<svg version="1.1" id="Layer_1" xmlns="http://www.w3.org/2000/svg" xmlns:xlink="http://www.w3.org/1999/xlink" x="0px" y="0px"
	 viewBox="0 0 101 62.9" style="enable-background:new 0 0 101 62.9;" xml:space="preserve">
<style type="text/css">
	.st0{fill:#00588A;}
	.st1{display:none;}
	.st2{display:inline;fill:#E2E9EC;}
	.st3{fill:#3B3838;}
</style>
<g id="ECE_1_">
	<g id="ECE">
		<path class="st0" d="M36.4,4.2c0-0.1,0-0.1,0.1-0.1l28,10.2c0.1,0,0.1,0.1,0.1,0.1v6.3c0,0.1,0,0.1-0.1,0.1l-20.9-7.6V24l20.9,7.6
			c0.1,0,0.1,0.1,0.1,0.1v6.3c0,0.1,0,0.1-0.1,0.1l-28-10.2c-0.1,0-0.1-0.1-0.1-0.1L36.4,4.2L36.4,4.2z"/>
		<path class="st0" d="M66.3,14.5c0-0.1,0.1-0.1,0.1-0.1l28-10.2c0.1,0,0.1,0,0.1,0.1v6.3c0,0.1,0,0.1-0.1,0.1l-20.9,7.6v2.2
			l20.9-7.6c0.1,0,0.1,0,0.1,0.1v6.3c0,0.1,0,0.1-0.1,0.1l-20.9,7.6v2.1l20.9-7.6c0.1,0,0.1,0,0.1,0.1v6.3c0,0.1,0,0.1-0.1,0.1
			l-28,10.2c-0.1,0-0.1,0-0.1-0.1L66.3,14.5L66.3,14.5z"/>
		<path class="st0" d="M6.3,14.5c0-0.1,0.1-0.1,0.1-0.1l28-10.2c0.1,0,0.1,0,0.1,0.1v6.3c0,0.1,0,0.1-0.1,0.1l-20.9,7.6v2.2
			l20.9-7.6c0.1,0,0.1,0,0.1,0.1v6.3c0,0.1,0,0.1-0.1,0.1l-20.9,7.6v2.1l20.9-7.6c0.1,0,0.1,0,0.1,0.1v6.3c0,0.1,0,0.1-0.1,0.1
			l-28,10.2c-0.1,0-0.1,0-0.1-0.1L6.3,14.5L6.3,14.5z"/>
	</g>
	<g id="ECE_white" class="st1">
		<path class="st2" d="M36.4,4.2c0-0.1,0-0.1,0.1-0.1l28,10.2c0.1,0,0.1,0.1,0.1,0.1v6.3c0,0.1,0,0.1-0.1,0.1l-20.9-7.6V24l20.9,7.6
			c0.1,0,0.1,0.1,0.1,0.1v6.3c0,0.1,0,0.1-0.1,0.1l-28-10.2c-0.1,0-0.1-0.1-0.1-0.1L36.4,4.2L36.4,4.2z"/>
		<path class="st2" d="M66.3,14.5c0-0.1,0.1-0.1,0.1-0.1l28-10.2c0.1,0,0.1,0,0.1,0.1v6.3c0,0.1,0,0.1-0.1,0.1l-20.9,7.6v2.2
			l20.9-7.6c0.1,0,0.1,0,0.1,0.1v6.3c0,0.1,0,0.1-0.1,0.1l-20.9,7.6v2.1l20.9-7.6c0.1,0,0.1,0,0.1,0.1v6.3c0,0.1,0,0.1-0.1,0.1
			l-28,10.2c-0.1,0-0.1,0-0.1-0.1L66.3,14.5L66.3,14.5z"/>
		<path class="st2" d="M6.3,14.5c0-0.1,0.1-0.1,0.1-0.1l28-10.2c0.1,0,0.1,0,0.1,0.1v6.3c0,0.1,0,0.1-0.1,0.1l-20.9,7.6v2.2
			l20.9-7.6c0.1,0,0.1,0,0.1,0.1v6.3c0,0.1,0,0.1-0.1,0.1l-20.9,7.6v2.1l20.9-7.6c0.1,0,0.1,0,0.1,0.1v6.3c0,0.1,0,0.1-0.1,0.1
			l-28,10.2c-0.1,0-0.1,0-0.1-0.1L6.3,14.5L6.3,14.5z"/>
	</g>
</g>
<g>
	<path class="st3" d="M15.5,48.3c0,0.7-0.2,1.4-0.6,2s-1,1.2-2,1.9l-0.8,0.6c-0.7,0.5-1.2,1-1.6,1.3s-0.7,0.7-1,1.1S9.1,56,9,56.5h5
		l0.1-3.1h1.6l-0.1,4.7H7c0-1.1,0.2-2,0.6-2.8c0.4-0.8,0.8-1.4,1.3-2s1.1-1,1.8-1.6l1.3-1c0.6-0.4,1-0.8,1.3-1.2
		c0.2-0.4,0.4-0.8,0.4-1.3c0-0.7-0.2-1.2-0.6-1.6s-0.9-0.6-1.6-0.6c-0.9,0-1.5,0.3-1.8,0.8s-0.5,1.3-0.5,2.4v0.4H7.4v-0.5
		c0-1.4,0.3-2.5,0.9-3.3c0.4-0.5,0.8-0.8,1.3-1s1.1-0.3,1.9-0.3c0.9,0,1.6,0.2,2.2,0.5s1,0.8,1.3,1.3S15.5,47.7,15.5,48.3z"/>
	<path class="st3" d="M26.4,51.5c0,1.4-0.2,2.7-0.6,3.7S25,57,24.3,57.6c-0.7,0.5-1.5,0.8-2.4,0.8c-1.5,0-2.6-0.6-3.4-1.8
		s-1.2-2.9-1.2-5c0-1.4,0.2-2.7,0.6-3.7c0.4-1,0.9-1.8,1.6-2.3s1.5-0.8,2.4-0.8c1.5,0,2.6,0.6,3.4,1.8S26.4,49.4,26.4,51.5z
		 M21.8,56.8c0.9,0,1.5-0.4,2-1.2s0.7-2.2,0.7-4.1c0-1.9-0.2-3.3-0.7-4s-1.1-1.2-2-1.2c-0.9,0-1.6,0.4-2,1.3c-0.4,0.9-0.6,2.2-0.6,4
		c0,1.9,0.2,3.2,0.7,4S21,56.8,21.8,56.8z"/>
	<path class="st3" d="M36.1,48.3c0,0.7-0.2,1.4-0.6,2s-1,1.2-2,1.9l-0.8,0.6c-0.7,0.5-1.2,1-1.6,1.3s-0.7,0.7-1,1.1
		s-0.5,0.8-0.6,1.3h5l0.1-3.1h1.6l-0.1,4.7h-8.5c0-1.1,0.2-2,0.6-2.8c0.4-0.8,0.8-1.4,1.3-2s1.1-1,1.8-1.6l1.3-1
		c0.6-0.4,1-0.8,1.3-1.2c0.2-0.4,0.4-0.8,0.4-1.3c0-0.7-0.2-1.2-0.6-1.6s-0.9-0.6-1.6-0.6c-0.9,0-1.5,0.3-1.8,0.8s-0.5,1.3-0.5,2.4
		v0.4h-1.7v-0.5c0-1.4,0.3-2.5,0.9-3.3c0.4-0.5,0.8-0.8,1.3-1s1.1-0.3,1.9-0.3c0.9,0,1.6,0.2,2.2,0.5s1,0.8,1.3,1.3
		S36.1,47.7,36.1,48.3z"/>
	<path class="st3" d="M46.3,48.2c0,0.7-0.2,1.4-0.6,1.9s-0.8,0.9-1.3,1.1c0.9,0.3,1.5,0.6,1.9,1.2c0.4,0.5,0.6,1.2,0.6,2.1
		c0,0.9-0.2,1.6-0.7,2.2s-1,1-1.7,1.3c-0.7,0.3-1.4,0.4-2.2,0.4c-1.4,0-2.6-0.4-3.4-1.2s-1.2-2-1.2-3.5h1.7c0,1,0.3,1.8,0.8,2.3
		s1.2,0.8,2.1,0.8c0.8,0,1.4-0.2,1.9-0.6c0.5-0.4,0.7-1,0.7-1.7c0-0.7-0.3-1.3-0.8-1.7c-0.5-0.5-1.4-0.7-2.5-0.7c-0.3,0-0.5,0-0.6,0
		v-1.6h0.2c0.6,0,1.1,0,1.6-0.1s0.8-0.3,1.1-0.6c0.3-0.3,0.5-0.7,0.5-1.3c0-0.6-0.2-1.1-0.5-1.5s-0.9-0.7-1.6-0.7
		c-0.7,0-1.3,0.2-1.6,0.7s-0.5,1.1-0.6,2h-1.9v-0.1c0-1.1,0.2-2,0.7-2.6s1-1,1.6-1.2s1.1-0.3,1.6-0.3c1.3,0,2.3,0.3,3,1
		C45.9,46.3,46.3,47.2,46.3,48.2z"/>
	<path class="st3" d="M48,54.5v-1.8h5.7v1.8H48z"/>
	<path class="st3" d="M63.3,48.3c0,0.7-0.2,1.4-0.6,2c-0.4,0.6-1,1.2-2,1.9l-0.8,0.6c-0.7,0.5-1.2,1-1.6,1.3c-0.4,0.3-0.7,0.7-1,1.1
		s-0.5,0.8-0.6,1.3h5l0.1-3.1h1.6l-0.1,4.7h-8.5c0-1.1,0.2-2,0.6-2.8c0.4-0.8,0.8-1.4,1.3-2s1.1-1,1.8-1.6l1.3-1
		c0.6-0.4,1-0.8,1.3-1.2c0.2-0.4,0.4-0.8,0.4-1.3c0-0.7-0.2-1.2-0.6-1.6s-0.9-0.6-1.6-0.6c-0.9,0-1.5,0.3-1.8,0.8s-0.5,1.3-0.5,2.4
		v0.4h-1.7v-0.5c0-1.4,0.3-2.5,0.9-3.3c0.4-0.5,0.8-0.8,1.3-1s1.1-0.3,1.9-0.3c0.9,0,1.6,0.2,2.2,0.5s1,0.8,1.3,1.3
		S63.3,47.7,63.3,48.3z"/>
	<path class="st3" d="M74.1,51.5c0,1.4-0.2,2.7-0.6,3.7S72.7,57,72,57.6c-0.7,0.5-1.5,0.8-2.4,0.8c-1.5,0-2.6-0.6-3.4-1.8
		s-1.2-2.9-1.2-5c0-1.4,0.2-2.7,0.6-3.7c0.4-1,0.9-1.8,1.6-2.3c0.7-0.5,1.5-0.8,2.4-0.8c1.5,0,2.6,0.6,3.4,1.8S74.1,49.4,74.1,51.5z
		 M69.6,56.8c0.9,0,1.5-0.4,2-1.2c0.4-0.8,0.7-2.2,0.7-4.1c0-1.9-0.2-3.3-0.7-4s-1.1-1.2-2-1.2c-0.9,0-1.6,0.4-2,1.3
		c-0.4,0.9-0.6,2.2-0.6,4c0,1.9,0.2,3.2,0.7,4S68.7,56.8,69.6,56.8z"/>
	<path class="st3" d="M83.8,48.3c0,0.7-0.2,1.4-0.6,2c-0.4,0.6-1,1.2-2,1.9l-0.8,0.6c-0.7,0.5-1.2,1-1.6,1.3c-0.4,0.3-0.7,0.7-1,1.1
		s-0.5,0.8-0.6,1.3h5l0.1-3.1h1.6l-0.1,4.7h-8.5c0-1.1,0.2-2,0.6-2.8c0.4-0.8,0.8-1.4,1.3-2s1.1-1,1.8-1.6l1.3-1
		c0.6-0.4,1-0.8,1.3-1.2c0.2-0.4,0.4-0.8,0.4-1.3c0-0.7-0.2-1.2-0.6-1.6s-0.9-0.6-1.6-0.6c-0.9,0-1.5,0.3-1.8,0.8s-0.5,1.3-0.5,2.4
		v0.4h-1.7v-0.5c0-1.4,0.3-2.5,0.9-3.3c0.4-0.5,0.8-0.8,1.3-1s1.1-0.3,1.9-0.3c0.9,0,1.6,0.2,2.2,0.5s1,0.8,1.3,1.3
		S83.8,47.7,83.8,48.3z"/>
	<path class="st3" d="M94.6,53v1.6h-2.1v2h1.2v1.6h-4.4v-1.6h1.4v-2h-4.4c-0.2-0.6-0.5-1.1-0.9-1.5l5.5-8.3h1.5V53H94.6z M90.7,53
		v-5.2L87.2,53H90.7z"/>
</g>
</svg>
