<?xml version="1.0" encoding="utf-8"?>
<!-- Generator: Adobe Illustrator 16.0.0, SVG Export Plug-In . SVG Version: 6.00 Build 0)  -->
<!DOCTYPE svg PUBLIC "-//W3C//DTD SVG 1.1//EN" "http://www.w3.org/Graphics/SVG/1.1/DTD/svg11.dtd">
<svg version="1.1" id="Layer_1" xmlns="http://www.w3.org/2000/svg" xmlns:xlink="http://www.w3.org/1999/xlink" x="0px" y="0px"
	 width="461px" height="390px" viewBox="-48.042 -60.474 461 390" enable-background="new -48.042 -60.474 461 390"
	 xml:space="preserve">
<g id="Layer_2">
</g>
<g id="Layer_3">
</g>
<g id="Layer_1_1_">
</g>
<g id="Layer_4">
</g>
<g id="Layer_4_copy">
</g>
<g id="ucla_ece">
	<g>
		<path fill="#00588A" d="M124.105,151.624c0.042-0.269,0.213-0.358,0.504-0.252l122.656,44.651
			c0.299,0.153,0.453,0.351,0.453,0.598v27.551c0,0.295-0.146,0.385-0.453,0.282l-91.618-33.351v47.412l91.618,33.351
			c0.299,0.154,0.453,0.351,0.453,0.594v27.56c0,0.29-0.146,0.385-0.453,0.277l-122.656-44.65c-0.342-0.12-0.504-0.329-0.504-0.624
			V151.624z"/>
		<path fill="#00588A" d="M254.984,196.621c0.052-0.303,0.223-0.513,0.505-0.624l122.674-44.646c0.29-0.056,0.444,0.043,0.444,0.273
			v27.563c0,0.286-0.146,0.491-0.444,0.595l-91.627,33.346v9.6l91.627-33.354c0.29-0.052,0.444,0.042,0.444,0.282v27.555
			c0,0.295-0.146,0.491-0.444,0.594l-91.627,33.354v9.378l91.627-33.347c0.29-0.06,0.444,0.034,0.444,0.282v27.551
			c0,0.29-0.146,0.487-0.444,0.598l-122.674,44.647c-0.333,0.128-0.505,0.038-0.505-0.248V196.621z"/>
		<path fill="#00588A" d="M-7.866,196.63c0.052-0.308,0.223-0.521,0.509-0.624l122.674-44.65c0.282-0.052,0.428,0.038,0.428,0.277
			v27.56c0,0.29-0.137,0.486-0.428,0.59l-91.623,33.35v9.596l91.623-33.347c0.282-0.06,0.428,0.034,0.428,0.278v27.563
			c0,0.286-0.137,0.482-0.428,0.59l-91.623,33.346v9.386l91.623-33.351c0.282-0.055,0.428,0.039,0.428,0.278v27.559
			c0,0.291-0.137,0.487-0.428,0.595L-7.357,300.271c-0.342,0.124-0.509,0.038-0.509-0.252V196.63z"/>
	</g>
	<g>
		<g>
			<path fill="#00588A" d="M-17.328,45.761c-0.539-3.821-0.278-9.36-0.278-12.087l6.287-65.299h23.341L5.628,34.242
				c-1.385,14.254,4.727,24.426,20.259,24.426c15.887,0,24.285-10.343,25.653-22.977l6.634-67.312h23.336l-6.463,66.457
				c-2.59,25.605-21.139,44.775-51.092,44.775C0.58,79.611-14.469,65.775-17.328,45.761"/>
			<path fill="#00588A" d="M90.98,23.651c3.044-31.35,26.132-57.341,66.009-57.341c10.497,0,20.575,2.188,30.628,8.121
				l-2.642,25.896c-9.206-11.087-20.13-12.877-30.209-12.877c-24.806,0-38.432,15.784-40.372,35.765
				c-1.881,19.464,9.069,35.291,33.115,35.291c10.497,0,21.618-2.782,33.286-13.434l-2.59,26.576
				c-11.344,5.638-21.909,8.202-32.534,8.202C106.213,79.854,88.134,53.001,90.98,23.651"/>
			<path fill="#00588A" d="M206.26-31.621h23.285l-8.488,88.687h33.337c2.334,0,10.292-0.111,12.464-0.227
				c-0.137,1.056-2.129,20.477-2.129,20.477h-69.017L206.26-31.621z"/>
			<path fill="#00588A" d="M333.482-36.613l-1.607,0.025L268.148,77.32h24.722l8.967-17.271h44.895l5.607,17.271h24.67
				L333.482-36.613z M327.515,9.046c0.786-1.551,1.461-3.458,1.735-4.586h0.358c0.129,1.368,0.402,3,0.881,4.607
				c1.273,4.971,10.343,32.551,10.343,32.551h-29.388C311.453,41.619,327.199,9.743,327.515,9.046"/>
		</g>
	</g>
</g>
<g id="ucla_ece_white">
</g>
</svg>
